<svg id="Layer_1" data-name="Layer 1" xmlns="http://www.w3.org/2000/svg" viewBox="0 0 209.65 28.68"><defs><style>.cls-1{fill:#231f20;}</style></defs><title>aecomiidblack</title><path class="cls-1" d="M120.12,28.14l.1-16.16-8.09,16.16h-3.5L105.7,12,101,28.14H94.17L102.74.54H109l3.22,15.57,8-15.57h6.22l.51,27.61ZM89.65,15.31c1-4.67-.73-8.3-4.26-9-3.88-.79-7.4,2.18-8.47,7.11-1,4.67.73,8.3,4.26,9,3.88.79,7.41-2.18,8.47-7.11M85.09.07C92.48.59,97,6.6,96.22,14.64c-.85,8.28-7.53,14.44-15.07,13.91C73.77,28,69.2,22,70,14,70.88,5.69,77.56-.47,85.09.07M67.59,27.69a16.92,16.92,0,0,1-6.13,1c-7.79,0-13-5.67-12.77-13.74C49,6.62,55.53,0,63.48,0a14.53,14.53,0,0,1,7.92,2.28L70.06,8.89A9.09,9.09,0,0,0,64,6.62a8.14,8.14,0,0,0-8.49,8c-.15,4.43,2.75,7.41,7.11,7.41a16.08,16.08,0,0,0,6-1ZM45.51,17.55H28.43l1-6.42H46.47ZM49.42,7H30L31,.54h19.4ZM47.21,21.72H27.81l-1,6.42h19.4Zm-35.47-5,4-9.57h.06l2,9.57Zm8.54,11.46h6.57L20.47.54H13L0,28.14H6.94L9.2,22.76h9.94Z"/><path class="cls-1" d="M208.51,28.13h1.14V26.72h-1.14Zm-2.65-3.53a3.53,3.53,0,0,1-.29,1.52,2.62,2.62,0,0,1-.82,1,2.46,2.46,0,0,1-.77.39,3.06,3.06,0,0,1-.84.11,2.51,2.51,0,0,1-.87-.16,2,2,0,0,1-.78-.55,2.93,2.93,0,0,1-.57-1,5,5,0,0,1-.22-1.6,5.6,5.6,0,0,1,.2-1.59,3,3,0,0,1,.54-1.06,2,2,0,0,1,.81-.6,2.72,2.72,0,0,1,1-.19,2.53,2.53,0,0,1,.81.12,2.62,2.62,0,0,1,.72.39,3.66,3.66,0,0,1,.48.44,1.79,1.79,0,0,1,.33.52,3,3,0,0,1,.18.68,6,6,0,0,1,.06.92Zm0,3.53h.88V17.3h-.88v4.08a3.06,3.06,0,0,0-1.24-1,3.43,3.43,0,0,0-1.3-.27,3.17,3.17,0,0,0-2.57,1.11,4.72,4.72,0,0,0-.93,3.12,6,6,0,0,0,.2,1.54,3.89,3.89,0,0,0,.61,1.3,3,3,0,0,0,1,.9,3.14,3.14,0,0,0,1.49.33,3,3,0,0,0,1.57-.38,4,4,0,0,0,1.14-1Zm-13.59-4.45A3.55,3.55,0,0,1,193,21.5a2.4,2.4,0,0,1,1.82-.71A2.71,2.71,0,0,1,196,21a1.88,1.88,0,0,1,.76.6,2.59,2.59,0,0,1,.42.92,4.68,4.68,0,0,1,.14,1.17Zm5,2.4a2.62,2.62,0,0,1-.25.63,1.66,1.66,0,0,1-.43.49,2,2,0,0,1-.68.33,3.79,3.79,0,0,1-1,.11,2.55,2.55,0,0,1-1.15-.25,2.39,2.39,0,0,1-.83-.68,3,3,0,0,1-.5-1,4.55,4.55,0,0,1-.17-1.25h6v-.56a5.94,5.94,0,0,0-.18-1.5,3.23,3.23,0,0,0-.58-1.21,2.82,2.82,0,0,0-1-.81,3.68,3.68,0,0,0-1.55-.3,3.6,3.6,0,0,0-1.42.27,3.1,3.1,0,0,0-1.12.81,3.77,3.77,0,0,0-.74,1.33,5.7,5.7,0,0,0-.27,1.82,4.43,4.43,0,0,0,.93,3,3.27,3.27,0,0,0,2.62,1.08,3.49,3.49,0,0,0,2.25-.64,2.66,2.66,0,0,0,1-1.65Zm-10.63,2h.88v-4.7a2.17,2.17,0,0,1,.23-1,2.51,2.51,0,0,1,.58-.74,2.15,2.15,0,0,1,.77-.49,2.39,2.39,0,0,1,.8-.14,3.06,3.06,0,0,1,.5,0l.11-.83-.31,0h-.31a2.46,2.46,0,0,0-1.29.36,3.57,3.57,0,0,0-1.08,1V20.32h-.88Zm-8-4.45a3.55,3.55,0,0,1,.82-2.18,2.4,2.4,0,0,1,1.82-.71,2.72,2.72,0,0,1,1.12.21,1.9,1.9,0,0,1,.76.6,2.61,2.61,0,0,1,.42.92,4.69,4.69,0,0,1,.14,1.17Zm5,2.4a2.62,2.62,0,0,1-.25.63,1.66,1.66,0,0,1-.43.49,2,2,0,0,1-.68.33,3.79,3.79,0,0,1-1,.11,2.54,2.54,0,0,1-1.15-.25,2.38,2.38,0,0,1-.83-.68,3,3,0,0,1-.5-1,4.5,4.5,0,0,1-.17-1.25h6v-.56a5.94,5.94,0,0,0-.18-1.5,3.22,3.22,0,0,0-.58-1.21,2.81,2.81,0,0,0-1-.81,3.68,3.68,0,0,0-1.55-.3,3.6,3.6,0,0,0-1.42.27,3.11,3.11,0,0,0-1.12.81,3.79,3.79,0,0,0-.74,1.33,5.7,5.7,0,0,0-.26,1.82,4.43,4.43,0,0,0,.93,3,3.27,3.27,0,0,0,2.62,1.08,3.49,3.49,0,0,0,2.25-.64,2.66,2.66,0,0,0,1-1.65Zm-11,2h1l3.16-7.81h-1l-2.72,6.86-2.65-6.86h-1Zm-5.83-9.51h1V17.3h-1Zm.06,9.51h.88V20.32h-.88Zm-3.4,0h.88V17.3h-.88Zm-7.87-4.45a3.55,3.55,0,0,1,.82-2.18,2.4,2.4,0,0,1,1.82-.71,2.72,2.72,0,0,1,1.12.21,1.9,1.9,0,0,1,.76.6,2.61,2.61,0,0,1,.42.92,4.68,4.68,0,0,1,.14,1.17Zm5,2.4a2.62,2.62,0,0,1-.25.63,1.66,1.66,0,0,1-.43.49,2,2,0,0,1-.68.33,3.79,3.79,0,0,1-1,.11,2.54,2.54,0,0,1-1.15-.25,2.38,2.38,0,0,1-.83-.68,3,3,0,0,1-.5-1,4.5,4.5,0,0,1-.17-1.25h6v-.56a5.94,5.94,0,0,0-.18-1.5,3.22,3.22,0,0,0-.58-1.21,2.8,2.8,0,0,0-1-.81,3.68,3.68,0,0,0-1.55-.3,3.61,3.61,0,0,0-1.42.27,3.11,3.11,0,0,0-1.12.81,3.79,3.79,0,0,0-.74,1.33,5.73,5.73,0,0,0-.26,1.82,4.43,4.43,0,0,0,.93,3,3.27,3.27,0,0,0,2.62,1.08,3.49,3.49,0,0,0,2.25-.64,2.66,2.66,0,0,0,1-1.65Zm-15.22,1.23V18.1h2.73a3.59,3.59,0,0,1,3,1.18,5.29,5.29,0,0,1,.95,3.38,5.18,5.18,0,0,1-1,3.44,3.94,3.94,0,0,1-3.19,1.21Zm-.93.82h3.32a6.54,6.54,0,0,0,2.17-.34,4.35,4.35,0,0,0,1.65-1,4.5,4.5,0,0,0,1-1.71,7.24,7.24,0,0,0,.36-2.41,7.38,7.38,0,0,0-.34-2.37,4.47,4.47,0,0,0-1-1.66,3.93,3.93,0,0,0-1.54-1,6.05,6.05,0,0,0-2-.33h-3.66Z"/><path class="cls-1" d="M208.51,11.35h1.14V9.94h-1.14ZM204,8.82q0,.53,0,1a2.36,2.36,0,0,0,.23.86,1.46,1.46,0,0,0,.57.6,2,2,0,0,0,1,.23,3.93,3.93,0,0,0,.86-.08,4,4,0,0,0,.55-.17l-.18-.71a4.29,4.29,0,0,1-.49.14,3.19,3.19,0,0,1-.67.06.91.91,0,0,1-.85-.4,1.85,1.85,0,0,1-.24-1V4.27h2.21V3.54h-2.21V1.38H204V3.54h-1.21v.73H204Zm-3.55-7h1V.52h-1Zm.06,9.51h.88V3.54h-.88Zm-11-4.45a3.55,3.55,0,0,1,.82-2.18A2.4,2.4,0,0,1,192.16,4a2.7,2.7,0,0,1,1.12.21,1.9,1.9,0,0,1,.76.6,2.61,2.61,0,0,1,.42.92,4.68,4.68,0,0,1,.14,1.17Zm5,2.4a2.59,2.59,0,0,1-.25.63,1.66,1.66,0,0,1-.43.49,2,2,0,0,1-.68.33,3.79,3.79,0,0,1-1,.11,2.54,2.54,0,0,1-1.15-.25,2.38,2.38,0,0,1-.83-.68,3,3,0,0,1-.5-1,4.5,4.5,0,0,1-.17-1.25h6V7.1a5.93,5.93,0,0,0-.18-1.5,3.23,3.23,0,0,0-.58-1.21,2.8,2.8,0,0,0-1-.8,3.66,3.66,0,0,0-1.55-.3,3.61,3.61,0,0,0-1.42.27,3.12,3.12,0,0,0-1.12.81,3.8,3.8,0,0,0-.74,1.33,5.72,5.72,0,0,0-.26,1.82,4.42,4.42,0,0,0,.93,3,3.27,3.27,0,0,0,2.62,1.09A3.49,3.49,0,0,0,194.4,11a2.67,2.67,0,0,0,1-1.65Zm-14.14,2h.88V6.77a2.41,2.41,0,0,1,.23-1.15,3,3,0,0,1,.68-.81,2.57,2.57,0,0,1,.92-.55,3,3,0,0,1,1-.17,1.7,1.7,0,0,1,1.4.54,2.81,2.81,0,0,1,.44,1.77v5h.88V6.15A3.14,3.14,0,0,0,186.13,4a2.46,2.46,0,0,0-2-.74,3.44,3.44,0,0,0-1.54.36,4.08,4.08,0,0,0-1.36,1.16V3.54h-.88Zm-3.11-9.51h1V.52h-1Zm.06,9.51h.88V3.54h-.88Zm-3-3.93A3.71,3.71,0,0,1,174,9a2.58,2.58,0,0,1-.81,1,2.74,2.74,0,0,1-.74.38,3,3,0,0,1-.85.11,2.51,2.51,0,0,1-.9-.17,2.1,2.1,0,0,1-.79-.54,2.8,2.8,0,0,1-.57-1,4.31,4.31,0,0,1-.22-1.48,4.87,4.87,0,0,1,.2-1.48,2.79,2.79,0,0,1,.55-1,2.08,2.08,0,0,1,.82-.58,2.83,2.83,0,0,1,1-.18,2.42,2.42,0,0,1,.8.12,2.89,2.89,0,0,1,.73.39,3.3,3.3,0,0,1,.47.44,2,2,0,0,1,.33.52,2.65,2.65,0,0,1,.18.68,6.93,6.93,0,0,1,.05.92ZM168.5,12.2a2.52,2.52,0,0,0,.35,1.05,2.17,2.17,0,0,0,.71.7,3.17,3.17,0,0,0,1,.39,6,6,0,0,0,1.24.12,3.26,3.26,0,0,0,2.56-.91,3.61,3.61,0,0,0,.81-2.49V3.54h-.88V4.6a3.07,3.07,0,0,0-1.23-1,3.39,3.39,0,0,0-1.32-.28,3.6,3.6,0,0,0-1.47.29,3.1,3.1,0,0,0-1.11.81,3.62,3.62,0,0,0-.7,1.27,5.29,5.29,0,0,0-.24,1.65,5.39,5.39,0,0,0,.2,1.46A3.75,3.75,0,0,0,169,10a3,3,0,0,0,1,.87,3.25,3.25,0,0,0,1.5.33,3.14,3.14,0,0,0,1.57-.37,3.52,3.52,0,0,0,1.14-1.05V11a3,3,0,0,1-.61,2.12,2.53,2.53,0,0,1-1.9.63,3.15,3.15,0,0,1-1.71-.37,1.74,1.74,0,0,1-.73-1.14Zm-2.94-3.85a3.92,3.92,0,0,1,0,.64,1.65,1.65,0,0,1-.16.49,1.74,1.74,0,0,1-.29.4,3.35,3.35,0,0,1-.45.38,2,2,0,0,1-.81.37,4.41,4.41,0,0,1-1,.11,1.86,1.86,0,0,1-1.4-.43,1.61,1.61,0,0,1-.4-1.14,1.91,1.91,0,0,1,.16-.81,1.39,1.39,0,0,1,.52-.58,2.92,2.92,0,0,1,1-.36,8.47,8.47,0,0,1,1.47-.16l1.44-.06Zm0,3h.88V6.21A4.56,4.56,0,0,0,166.3,5a2.22,2.22,0,0,0-.49-.91,2.17,2.17,0,0,0-.9-.57,4.19,4.19,0,0,0-1.38-.2q-2.64,0-3.06,1.91l.8.12a1.79,1.79,0,0,1,.23-.52,1.46,1.46,0,0,1,.41-.41,2,2,0,0,1,.65-.26A4.2,4.2,0,0,1,163.5,4a2,2,0,0,1,1.6.53,2.59,2.59,0,0,1,.45,1.68V6.5L164,6.56a12.19,12.19,0,0,0-1.46.14,4.12,4.12,0,0,0-1.26.4,2.34,2.34,0,0,0-.89.79,2.28,2.28,0,0,0-.33,1.29,2.11,2.11,0,0,0,.74,1.76,3.08,3.08,0,0,0,2,.59,3.77,3.77,0,0,0,.92-.11,3.55,3.55,0,0,0,.77-.29,3.24,3.24,0,0,0,.62-.42,3.84,3.84,0,0,0,.47-.48Zm-17.92,0h.88V6.72a2.62,2.62,0,0,1,.08-.7,2.55,2.55,0,0,1,.2-.53,1.76,1.76,0,0,1,.28-.39l.3-.29a3.39,3.39,0,0,1,.8-.54,2,2,0,0,1,.86-.19,1.46,1.46,0,0,1,1.2.48,2.57,2.57,0,0,1,.39,1.62v5.17h.88v-5a1.88,1.88,0,0,1,.24-1,2.4,2.4,0,0,1,.6-.7,2.31,2.31,0,0,1,.86-.48,2.94,2.94,0,0,1,.8-.13,2.32,2.32,0,0,1,.71.1,1.1,1.1,0,0,1,.51.34,1.56,1.56,0,0,1,.3.64,4.25,4.25,0,0,1,.1,1v5.19h.88V5.84a2.58,2.58,0,0,0-.64-1.94,2.45,2.45,0,0,0-1.76-.61,3.08,3.08,0,0,0-1.53.4,3.93,3.93,0,0,0-1.24,1.13,2.34,2.34,0,0,0-.8-1.13,2.35,2.35,0,0,0-1.43-.4,2.66,2.66,0,0,0-1.34.38,4.15,4.15,0,0,0-1.24,1.15V3.54h-.88Zm-3.23,0h.93V.52h-.93Z"/></svg>