<svg id="Layer_1" data-name="Layer 1" xmlns="http://www.w3.org/2000/svg" viewBox="0 0 88.75 24.5"><defs><style>.cls-1{fill:#231f20;}</style></defs><title>dcsmarketing</title><path class="cls-1" d="M8.16.18h3.11a4.09,4.09,0,0,1,3,1.06,4.26,4.26,0,0,1,1.08,3.18A5.4,5.4,0,0,1,15,6.3a3.56,3.56,0,0,1-.87,1.36,3.68,3.68,0,0,1-1.38.82A5.61,5.61,0,0,1,11,8.75H8.16ZM11,7.5a3.42,3.42,0,0,0,1.28-.21,2.22,2.22,0,0,0,.88-.62,2.54,2.54,0,0,0,.5-1,4.62,4.62,0,0,0,.16-1.27,5,5,0,0,0-.14-1.26,2.53,2.53,0,0,0-.45-.94,1.93,1.93,0,0,0-.8-.59,3.08,3.08,0,0,0-1.18-.2H9.61V7.5Z"/><path class="cls-1" d="M24,5.86a4.07,4.07,0,0,1-.32,1.24,3.06,3.06,0,0,1-.7,1,3.11,3.11,0,0,1-1.08.65A4.26,4.26,0,0,1,20.47,9a4.14,4.14,0,0,1-1.65-.31,3.29,3.29,0,0,1-1.22-.89,3.93,3.93,0,0,1-.76-1.42,6.31,6.31,0,0,1-.26-1.87,5.94,5.94,0,0,1,.28-1.9,4.06,4.06,0,0,1,.8-1.42A3.41,3.41,0,0,1,18.9.27,4,4,0,0,1,20.49,0a4.26,4.26,0,0,1,1.39.2,2.85,2.85,0,0,1,1,.58,2.83,2.83,0,0,1,.66.91,4.9,4.9,0,0,1,.37,1.18L22.48,3a4.37,4.37,0,0,0-.24-.77,1.78,1.78,0,0,0-.38-.57,1.57,1.57,0,0,0-.57-.36,2.29,2.29,0,0,0-.8-.13,2.2,2.2,0,0,0-1,.23,2.1,2.1,0,0,0-.75.65,3.06,3.06,0,0,0-.46,1,5.35,5.35,0,0,0-.16,1.34,5.21,5.21,0,0,0,.16,1.36,3.07,3.07,0,0,0,.47,1,2.11,2.11,0,0,0,.75.65,2.19,2.19,0,0,0,1,.22,2.45,2.45,0,0,0,.86-.13,1.63,1.63,0,0,0,.59-.37,1.73,1.73,0,0,0,.38-.58,3.28,3.28,0,0,0,.2-.77Z"/><path class="cls-1" d="M26.37,6.13A1.69,1.69,0,0,0,27,7.36a2.5,2.5,0,0,0,1.52.38,2.73,2.73,0,0,0,.83-.11,1.51,1.51,0,0,0,.54-.29,1,1,0,0,0,.29-.43,1.61,1.61,0,0,0,.08-.52,1.38,1.38,0,0,0-.06-.4A.94.94,0,0,0,30,5.63a1.38,1.38,0,0,0-.42-.29,2.64,2.64,0,0,0-.67-.2l-1.09-.2a7.51,7.51,0,0,1-1.15-.3,2.64,2.64,0,0,1-.85-.47,1.86,1.86,0,0,1-.52-.72,2.74,2.74,0,0,1-.17-1,2.22,2.22,0,0,1,.25-1.07A2.21,2.21,0,0,1,26,.57a3.06,3.06,0,0,1,1-.46A5.26,5.26,0,0,1,28.32,0a4.68,4.68,0,0,1,1.49.2,2.81,2.81,0,0,1,1,.53,2.22,2.22,0,0,1,.56.76,3.53,3.53,0,0,1,.26.9l-1.37.22a1.91,1.91,0,0,0-.58-1.07,2,2,0,0,0-1.31-.35,3.44,3.44,0,0,0-.86.09,1.54,1.54,0,0,0-.55.25.94.94,0,0,0-.3.37,1.1,1.1,0,0,0-.09.44,1.08,1.08,0,0,0,.31.84,2.32,2.32,0,0,0,1.07.43l1.19.23a3.88,3.88,0,0,1,2,.86,2.3,2.3,0,0,1,.64,1.75,2.52,2.52,0,0,1-.2,1,2.15,2.15,0,0,1-.61.8,3,3,0,0,1-1,.54,4.55,4.55,0,0,1-1.41.2,4.26,4.26,0,0,1-2.58-.69,2.72,2.72,0,0,1-1-2.14Z"/><path class="cls-1" d="M38.31.18h1.44L43,8.75H41.46l-.8-2.18H37.33l-.79,2.18H35Zm2,5.17L39,1.83,37.73,5.35Z"/><path class="cls-1" d="M43.91,2.51h1.32v.9a2.63,2.63,0,0,1,.87-.82,2.06,2.06,0,0,1,1-.27,1.94,1.94,0,0,1,1.12.29,1.65,1.65,0,0,1,.62.83,3,3,0,0,1,.94-.85,2.26,2.26,0,0,1,1.1-.28,1.9,1.9,0,0,1,1.43.52,2.34,2.34,0,0,1,.5,1.67V8.75H51.46v-4a1.48,1.48,0,0,0-.25-1,.91.91,0,0,0-.68-.26,1.53,1.53,0,0,0-.52.09,1.41,1.41,0,0,0-.49.32,1.49,1.49,0,0,0-.34.43,1.19,1.19,0,0,0-.13.56V8.75H47.68v-4a1.49,1.49,0,0,0-.25-1,.88.88,0,0,0-.67-.27,1.39,1.39,0,0,0-1,.44,1.62,1.62,0,0,0-.33.45,1.43,1.43,0,0,0-.14.65V8.75H43.91Z"/><path class="cls-1" d="M59.87,6.9A2.38,2.38,0,0,1,59,8.41a3,3,0,0,1-1.9.53,2.89,2.89,0,0,1-2.26-.86,3.48,3.48,0,0,1-.77-2.42,4.24,4.24,0,0,1,.22-1.43,3,3,0,0,1,.62-1,2.65,2.65,0,0,1,1-.65,3.3,3.3,0,0,1,1.23-.22,3.21,3.21,0,0,1,1.25.22,2.34,2.34,0,0,1,.88.62,2.59,2.59,0,0,1,.52,1A4.31,4.31,0,0,1,60,5.37V6H55.48a2.3,2.3,0,0,0,.43,1.38,1.46,1.46,0,0,0,1.24.53,1.57,1.57,0,0,0,1-.25,1.22,1.22,0,0,0,.43-.72ZM58.62,5a1.87,1.87,0,0,0-.36-1.21,1.4,1.4,0,0,0-1.15-.44A1.45,1.45,0,0,0,56,3.81,2,2,0,0,0,55.5,5Z"/><path class="cls-1" d="M61.27,2.51h1.33v.93a2.35,2.35,0,0,1,.79-.77,1.9,1.9,0,0,1,1-.26,2.9,2.9,0,0,1,.61,0l-.16,1.26-.28,0H64.2a1.9,1.9,0,0,0-.55.08,1.45,1.45,0,0,0-.52.29,1.36,1.36,0,0,0-.49,1.07V8.75H61.27Z"/><path class="cls-1" d="M66,.18h1.42V1.54H66Zm0,2.33h1.37V8.75H66Z"/><path class="cls-1" d="M74.45,6.57a2.72,2.72,0,0,1-.79,1.74,2.72,2.72,0,0,1-2,.64,3.39,3.39,0,0,1-1.31-.23A2.46,2.46,0,0,1,69.47,8a2.77,2.77,0,0,1-.55-1,4.73,4.73,0,0,1-.18-1.35,4.3,4.3,0,0,1,.2-1.37,3,3,0,0,1,.59-1.05,2.65,2.65,0,0,1,1-.68,3.25,3.25,0,0,1,1.28-.24,2.6,2.6,0,0,1,1.82.58,2.48,2.48,0,0,1,.76,1.55L73,4.65a2,2,0,0,0-.37-.88,1.09,1.09,0,0,0-.91-.34A1.44,1.44,0,0,0,71,3.6a1.38,1.38,0,0,0-.49.47,2.16,2.16,0,0,0-.27.7,4.12,4.12,0,0,0-.08.85,4.48,4.48,0,0,0,.08.86,2.14,2.14,0,0,0,.26.7,1.38,1.38,0,0,0,.48.48,1.43,1.43,0,0,0,.74.18,1.27,1.27,0,0,0,1-.33,1.64,1.64,0,0,0,.4-.94Z"/><path class="cls-1" d="M79.5,7.94a3.16,3.16,0,0,1-.84.69,2.46,2.46,0,0,1-1.24.28,2.89,2.89,0,0,1-.83-.11,1.91,1.91,0,0,1-.67-.34,1.58,1.58,0,0,1-.44-.58A2,2,0,0,1,75.32,7,1.79,1.79,0,0,1,75.61,6a2,2,0,0,1,.74-.63,3.51,3.51,0,0,1,1-.32,10.28,10.28,0,0,1,1.18-.11l.92,0V4.61a1.23,1.23,0,0,0-.32-1,1.35,1.35,0,0,0-.91-.28,1.67,1.67,0,0,0-1,.22,1,1,0,0,0-.4.62l-1.24-.13a1.89,1.89,0,0,1,.83-1.33,3.36,3.36,0,0,1,1.81-.42,3.59,3.59,0,0,1,1.18.17,1.93,1.93,0,0,1,.78.49,1.86,1.86,0,0,1,.43.77,3.6,3.6,0,0,1,.13,1v4H79.5Zm0-2.14-.88,0a5,5,0,0,0-.95.11,1.84,1.84,0,0,0-.59.23.73.73,0,0,0-.29.35,1.26,1.26,0,0,0-.08.46.83.83,0,0,0,.25.63,1.09,1.09,0,0,0,.77.23A2,2,0,0,0,79,7.46a1.37,1.37,0,0,0,.49-1.15Z"/><path class="cls-1" d="M83.23,6.84a1,1,0,0,0,.5.82,2.16,2.16,0,0,0,1,.22,1.76,1.76,0,0,0,1-.21A.69.69,0,0,0,86,7.07a.78.78,0,0,0-.19-.53,1.29,1.29,0,0,0-.76-.31l-.83-.14a5.81,5.81,0,0,1-1-.22,2.18,2.18,0,0,1-.69-.36A1.41,1.41,0,0,1,82.22,5a1.87,1.87,0,0,1-.14-.76,1.61,1.61,0,0,1,.19-.79,1.8,1.8,0,0,1,.53-.59,2.55,2.55,0,0,1,.82-.38,3.86,3.86,0,0,1,1-.13,4.2,4.2,0,0,1,1.19.14,2.37,2.37,0,0,1,.79.38,1.64,1.64,0,0,1,.47.57,2.81,2.81,0,0,1,.23.7l-1.24.17a1.35,1.35,0,0,0-.44-.7,1.61,1.61,0,0,0-1-.23,2.47,2.47,0,0,0-.63.07,1.28,1.28,0,0,0-.4.17.6.6,0,0,0-.22.24.67.67,0,0,0-.06.28,1,1,0,0,0,0,.3.47.47,0,0,0,.16.23,1,1,0,0,0,.32.16,3.17,3.17,0,0,0,.52.11l.84.14a4.81,4.81,0,0,1,1,.26,2,2,0,0,1,.66.4,1.36,1.36,0,0,1,.36.56,2.38,2.38,0,0,1,.11.76,1.68,1.68,0,0,1-.65,1.37,3.1,3.1,0,0,1-2,.53,5.3,5.3,0,0,1-1.06-.1,2.57,2.57,0,0,1-.88-.35,2,2,0,0,1-.63-.65,2.14,2.14,0,0,1-.28-1Z"/><path class="cls-1" d="M8.16,12.18H9.93L12.36,19l2.51-6.82h1.7v8.57H15.24V14.52l-2.35,6.23H11.74L9.47,14.54v6.22H8.16Z"/><path class="cls-1" d="M22,19.94a3.15,3.15,0,0,1-.84.69,2.46,2.46,0,0,1-1.24.28,2.89,2.89,0,0,1-.83-.11,1.9,1.9,0,0,1-.67-.34,1.58,1.58,0,0,1-.44-.58,2,2,0,0,1-.16-.83,1.79,1.79,0,0,1,.28-1,2,2,0,0,1,.74-.63,3.51,3.51,0,0,1,1-.32,10.28,10.28,0,0,1,1.18-.11l.92,0v-.26a1.23,1.23,0,0,0-.32-1,1.35,1.35,0,0,0-.91-.28,1.67,1.67,0,0,0-1,.22,1,1,0,0,0-.4.62l-1.24-.13A1.89,1.89,0,0,1,19,14.74a3.36,3.36,0,0,1,1.81-.42,3.57,3.57,0,0,1,1.18.17,1.92,1.92,0,0,1,.78.49,1.87,1.87,0,0,1,.43.77,3.6,3.6,0,0,1,.13,1v4H22Zm0-2.14-.88,0a5,5,0,0,0-.95.11,1.85,1.85,0,0,0-.59.23.74.74,0,0,0-.29.35,1.26,1.26,0,0,0-.08.46.83.83,0,0,0,.25.63,1.09,1.09,0,0,0,.77.23,2,2,0,0,0,1.27-.39A1.37,1.37,0,0,0,22,18.32Z"/><path class="cls-1" d="M24.84,14.51h1.33v.93a2.35,2.35,0,0,1,.79-.77,1.9,1.9,0,0,1,1-.26,2.87,2.87,0,0,1,.61,0l-.16,1.26-.28,0h-.34a1.86,1.86,0,0,0-.55.08,1.44,1.44,0,0,0-.52.29,1.36,1.36,0,0,0-.49,1.07v3.65H24.84Z"/><path class="cls-1" d="M29.56,12.18h1.37v4.74l2.66-2.41h1.6l-2.26,2.12,2.46,4.12h-1.5l-1.94-3.34-1,.91v2.42H29.56Z"/><path class="cls-1" d="M41.43,18.9a2.38,2.38,0,0,1-.83,1.51,3,3,0,0,1-1.9.53,2.89,2.89,0,0,1-2.26-.86,3.48,3.48,0,0,1-.77-2.42,4.23,4.23,0,0,1,.22-1.43,2.93,2.93,0,0,1,.62-1,2.64,2.64,0,0,1,1-.65,3.29,3.29,0,0,1,1.23-.22,3.2,3.2,0,0,1,1.25.22,2.34,2.34,0,0,1,.88.62,2.58,2.58,0,0,1,.52,1,4.31,4.31,0,0,1,.17,1.24V18H37a2.3,2.3,0,0,0,.43,1.38,1.46,1.46,0,0,0,1.24.53,1.57,1.57,0,0,0,1-.25,1.22,1.22,0,0,0,.43-.72ZM40.18,17a1.87,1.87,0,0,0-.36-1.21,1.4,1.4,0,0,0-1.15-.44,1.45,1.45,0,0,0-1.15.45A2,2,0,0,0,37.06,17Z"/><path class="cls-1" d="M43.2,15.59h-1V14.51h1V12.83h1.37v1.68h1.55v1.08H44.57v3.26q0,.91.78.91a2.38,2.38,0,0,0,.76-.11l.2,1a3.93,3.93,0,0,1-1.25.19,1.71,1.71,0,0,1-1.45-.54,2.59,2.59,0,0,1-.41-1.6Z"/><path class="cls-1" d="M47.19,12.18H48.6v1.36H47.19Zm0,2.33h1.37v6.24H47.21Z"/><path class="cls-1" d="M50.14,14.51h1.32v.91a2.65,2.65,0,0,1,1-.84,2.48,2.48,0,0,1,1.11-.26q2.09,0,2.09,2.3v4.13H54.24V16.84A1.59,1.59,0,0,0,54,15.77a1.06,1.06,0,0,0-.82-.3,1.69,1.69,0,0,0-1.15.44,1.53,1.53,0,0,0-.37.48,1.47,1.47,0,0,0-.13.64v3.72H50.14Z"/><path class="cls-1" d="M58.51,21.23a1,1,0,0,0,.44.71,2.17,2.17,0,0,0,1,.19,1.69,1.69,0,0,0,.78-.16,1.13,1.13,0,0,0,.46-.43,1.89,1.89,0,0,0,.22-.66A5.6,5.6,0,0,0,61.5,20V19.6a2.26,2.26,0,0,1-.83.74,2.48,2.48,0,0,1-1.15.25,2.7,2.7,0,0,1-1.16-.23,2.24,2.24,0,0,1-.82-.65,2.83,2.83,0,0,1-.49-1,4.58,4.58,0,0,1-.16-1.25,4.17,4.17,0,0,1,.19-1.28,2.83,2.83,0,0,1,.54-1,2.48,2.48,0,0,1,.86-.65,2.71,2.71,0,0,1,1.15-.23,2.6,2.6,0,0,1,1,.2,2.29,2.29,0,0,1,.91.74v-.75h1.33v5.3a6.69,6.69,0,0,1-.14,1.42,2.66,2.66,0,0,1-.47,1.07,2.15,2.15,0,0,1-.89.67,4.47,4.47,0,0,1-3.43-.24,2,2,0,0,1-.79-1.51Zm3-3.84a2.86,2.86,0,0,0-.14-1,1.61,1.61,0,0,0-.36-.6,1.23,1.23,0,0,0-.52-.31,2,2,0,0,0-.59-.09,1.68,1.68,0,0,0-.62.11,1.3,1.3,0,0,0-.5.36,1.72,1.72,0,0,0-.34.63,3.12,3.12,0,0,0-.12.92,3.08,3.08,0,0,0,.13.95,1.84,1.84,0,0,0,.34.63,1.22,1.22,0,0,0,.49.35,1.56,1.56,0,0,0,.58.11A1.65,1.65,0,0,0,61,19a2,2,0,0,0,.47-1.45Z"/></svg>