<svg id="Layer_1" data-name="Layer 1" xmlns="http://www.w3.org/2000/svg" viewBox="0 0 500 150"><title>logos</title><path d="M65.22,62.24q-1.3,8.18-6.56,12.42t-15.3,4.23q-12.09,0-18.18-6.7t-6.09-19a31.44,31.44,0,0,1,1.77-10.93,23.18,23.18,0,0,1,5-8.14,20.89,20.89,0,0,1,7.67-5.07,27.21,27.21,0,0,1,9.86-1.72q11.16,0,16.79,6.42t5.63,17.3v5.21H32.11q.19,5.86,3,9.16t8.37,3.3q7.72,0,9.11-6.51Zm-12-14.51q0-5-2.46-7.81t-7.67-2.79a11.49,11.49,0,0,0-4.56.84,9.66,9.66,0,0,0-3.3,2.28,10.37,10.37,0,0,0-2.09,3.35,12.73,12.73,0,0,0-.84,4.14Z"/><path d="M119.16,59.82q-.74,8.74-6,13.9T97.4,78.89A27.49,27.49,0,0,1,86.79,77a18.89,18.89,0,0,1-7.3-5.21,21.88,21.88,0,0,1-4.23-8.09,37.17,37.17,0,0,1-1.4-10.51A32.62,32.62,0,0,1,75.5,42.67a23.11,23.11,0,0,1,4.7-8.18,20.77,20.77,0,0,1,7.53-5.25A26.41,26.41,0,0,1,98,27.37a26.62,26.62,0,0,1,8.6,1.26,17.89,17.89,0,0,1,6.18,3.49,15.59,15.59,0,0,1,3.91,5.35,23.94,23.94,0,0,1,1.86,6.84L105.4,46.06a12.65,12.65,0,0,0-2.14-6q-1.67-2.28-5.77-2.28A8.94,8.94,0,0,0,92.56,39a9.14,9.14,0,0,0-3.12,3.39,15.6,15.6,0,0,0-1.63,4.88A34.09,34.09,0,0,0,87.35,53a35.5,35.5,0,0,0,.46,5.86,16.42,16.42,0,0,0,1.58,4.93,8.77,8.77,0,0,0,3.07,3.39,9,9,0,0,0,4.93,1.26,8,8,0,0,0,6-2.23A10.3,10.3,0,0,0,106,59.82Z"/><path d="M149.48,78.89q-11.72,0-18.14-6.7T124.92,53a31.6,31.6,0,0,1,1.72-10.74,22.19,22.19,0,0,1,4.93-8.09,21.53,21.53,0,0,1,7.77-5.07,27.86,27.86,0,0,1,10.14-1.77,28.14,28.14,0,0,1,10.23,1.77,21,21,0,0,1,12.65,13.16A32.41,32.41,0,0,1,174,53a31.92,31.92,0,0,1-1.72,10.83A22.65,22.65,0,0,1,167.38,72a21.21,21.21,0,0,1-7.77,5.11A27.84,27.84,0,0,1,149.48,78.89Zm0-10.42q5.58,0,8.32-4T160.54,53q0-7.44-2.74-11.35t-8.32-3.91q-5.58,0-8.32,3.91T138.41,53q0,7.53,2.7,11.49T149.48,68.47Z"/><path d="M189.56,63.36q.84,5,4.23,7t9.25,2q6.14,0,8.7-2.09a6.8,6.8,0,0,0,2.56-5.53A10.55,10.55,0,0,0,214,62.1a5,5,0,0,0-1.26-2.23,8.11,8.11,0,0,0-2.6-1.72,19,19,0,0,0-4.37-1.21L199.6,56a45.11,45.11,0,0,1-7.16-1.67,17.83,17.83,0,0,1-5.21-2.65,10.25,10.25,0,0,1-3.21-4A13.85,13.85,0,0,1,183,42a12.07,12.07,0,0,1,1.44-6,13.24,13.24,0,0,1,4-4.42,19.39,19.39,0,0,1,6-2.79,28,28,0,0,1,7.58-1,31.41,31.41,0,0,1,8.7,1,16.73,16.73,0,0,1,5.72,2.79,12.34,12.34,0,0,1,3.44,4.19,24.08,24.08,0,0,1,1.86,5.11l-7.35,1.21a19.88,19.88,0,0,0-1.49-3.44,7.4,7.4,0,0,0-2.23-2.46,10.34,10.34,0,0,0-3.39-1.49,20.52,20.52,0,0,0-5-.51,21.75,21.75,0,0,0-5.58.6,10.4,10.4,0,0,0-3.58,1.63,5.92,5.92,0,0,0-1.91,2.28,6.46,6.46,0,0,0-.56,2.65,8.69,8.69,0,0,0,.37,2.65,4.48,4.48,0,0,0,1.4,2,9,9,0,0,0,2.79,1.53,25.69,25.69,0,0,0,4.56,1.12l7,1.12q8.46,1.39,12.14,4.84t3.67,10a13,13,0,0,1-1.21,5.63,12.42,12.42,0,0,1-3.63,4.46,17.78,17.78,0,0,1-6,3,30.09,30.09,0,0,1-8.46,1.07,37.5,37.5,0,0,1-8.14-.84,20.88,20.88,0,0,1-6.65-2.65,14,14,0,0,1-4.65-4.79,16.07,16.07,0,0,1-2-7.25Z"/><path d="M231.78,87.63a15.44,15.44,0,0,0,5.21.93,6.46,6.46,0,0,0,4.6-1.53,15.8,15.8,0,0,0,3.21-5.72l2-5.12L226.39,29.32h9.39l15.16,37.76L264.8,29.32h8.93L252.71,82a60.7,60.7,0,0,1-2.6,5.72,21.17,21.17,0,0,1-2.88,4.23,10.08,10.08,0,0,1-3.77,2.65,14.3,14.3,0,0,1-5.35.88,25.74,25.74,0,0,1-4-.28,22.9,22.9,0,0,1-3.91-1Z"/><path d="M285.81,63.36q.84,5,4.23,7t9.25,2q6.14,0,8.7-2.09a6.8,6.8,0,0,0,2.56-5.53,10.55,10.55,0,0,0-.33-2.65A5,5,0,0,0,309,59.87a8.11,8.11,0,0,0-2.6-1.72A19,19,0,0,0,302,56.94L295.86,56a45.11,45.11,0,0,1-7.16-1.67,17.83,17.83,0,0,1-5.21-2.65,10.25,10.25,0,0,1-3.21-4A13.85,13.85,0,0,1,279.21,42a12.07,12.07,0,0,1,1.44-6,13.24,13.24,0,0,1,4-4.42,19.39,19.39,0,0,1,6-2.79,28,28,0,0,1,7.58-1,31.41,31.41,0,0,1,8.7,1,16.73,16.73,0,0,1,5.72,2.79,12.34,12.34,0,0,1,3.44,4.19A24.08,24.08,0,0,1,318,40.95l-7.35,1.21a19.88,19.88,0,0,0-1.49-3.44,7.4,7.4,0,0,0-2.23-2.46,10.34,10.34,0,0,0-3.39-1.49,20.52,20.52,0,0,0-5-.51,21.75,21.75,0,0,0-5.58.6,10.4,10.4,0,0,0-3.58,1.63,5.92,5.92,0,0,0-1.91,2.28,6.46,6.46,0,0,0-.56,2.65,8.69,8.69,0,0,0,.37,2.65,4.48,4.48,0,0,0,1.4,2,9,9,0,0,0,2.79,1.53A25.69,25.69,0,0,0,296,48.76l7,1.12q8.46,1.39,12.14,4.84t3.67,10a13,13,0,0,1-1.21,5.63A12.42,12.42,0,0,1,314,74.84a17.78,17.78,0,0,1-6,3,30.09,30.09,0,0,1-8.46,1.07,37.5,37.5,0,0,1-8.14-.84,20.88,20.88,0,0,1-6.65-2.65A14,14,0,0,1,280,70.61a16.07,16.07,0,0,1-2-7.25Z"/><path d="M331.94,35.74H324.5V29.32h7.44V16.21H340V29.32h12.74v6.42H340V63.92a9.32,9.32,0,0,0,1.58,5.67,5.62,5.62,0,0,0,4.84,2.14,20.23,20.23,0,0,0,3.58-.28,18,18,0,0,0,2.84-.74l1.4,6.23a28.46,28.46,0,0,1-4,1.07,27.76,27.76,0,0,1-5.16.42,15.34,15.34,0,0,1-6.6-1.21,9.82,9.82,0,0,1-4-3.44,13.38,13.38,0,0,1-2-5.3,40.73,40.73,0,0,1-.51-6.7Z"/><path d="M401.6,63.92a17.31,17.31,0,0,1-6.18,11q-5,4-14.28,4-11,0-16.83-6.65t-5.86-18.55a33.76,33.76,0,0,1,1.67-11.07,22.55,22.55,0,0,1,4.7-8.09,20.19,20.19,0,0,1,7.21-5,25.91,25.91,0,0,1,18.69,0,17.46,17.46,0,0,1,6.56,4.88,20.69,20.69,0,0,1,3.81,7.39,33.27,33.27,0,0,1,1.26,9.39v4.09H366.63a22.44,22.44,0,0,0,1,6.74,16.46,16.46,0,0,0,2.79,5.39,12.76,12.76,0,0,0,4.51,3.58,14.15,14.15,0,0,0,6.23,1.3q6,0,8.83-2.28a11.48,11.48,0,0,0,3.81-6.18Zm-7.35-14.6a24.21,24.21,0,0,0-.74-6.23,13.07,13.07,0,0,0-2.32-4.79,10.62,10.62,0,0,0-4.09-3.12,14.83,14.83,0,0,0-6-1.12q-6.42,0-10,3.91t-4.23,11.35Z"/><path d="M413,29.32h8v7.35A22.8,22.8,0,0,1,428.19,30a16.2,16.2,0,0,1,8-2.19,14.81,14.81,0,0,1,8.7,2.32,13.55,13.55,0,0,1,4.88,6.7,22.73,22.73,0,0,1,7.44-6.74,18.4,18.4,0,0,1,8.93-2.28q7.07,0,10.93,3.86t3.86,12.42V77.4h-8.09V46a22.41,22.41,0,0,0-.56-5.44,8.5,8.5,0,0,0-1.63-3.44A5.74,5.74,0,0,0,468,35.32a11.82,11.82,0,0,0-3.63-.51,14.63,14.63,0,0,0-4.46.74,13.7,13.7,0,0,0-4.56,2.6A13.19,13.19,0,0,0,452.28,42a10.56,10.56,0,0,0-1.21,5.12V77.4H443V46.06q0-6.32-2.19-8.79a8,8,0,0,0-6.28-2.46,12.93,12.93,0,0,0-8.93,3.91,18.82,18.82,0,0,0-3,3.81,11.73,11.73,0,0,0-1.44,6.23V77.4H413Z"/></svg>