<?xml version="1.0" encoding="UTF-8"?>
<svg width="1000px" height="640px" viewBox="0 0 1000 640" version="1.1" xmlns="http://www.w3.org/2000/svg" xmlns:xlink="http://www.w3.org/1999/xlink">
    <!-- Generator: Sketch 48.2 (47327) - http://www.bohemiancoding.com/sketch -->
    <title>darklogo</title>
    <desc>Created with Sketch.</desc>
    <defs></defs>
    <g id="Page-1" stroke="none" stroke-width="1" fill="none" fill-rule="evenodd">
        <g id="darklogo">
            <rect id="Rectangle" fill="#FFFFFF" x="0" y="0" width="1000" height="640"></rect>
            <g transform="translate(262.000000, 101.000000)">
                <g id="feathers" transform="translate(291.911648, 0.000000)">
                    <polyline id="Fill-21" fill="#32A7DE" points="13.8350757 254.0217 183.479274 205.873304 172.893636 142.336499 13.8350757 254.0217"></polyline>
                    <polyline id="Fill-22" fill="#EBCF5D" points="10.5779563 247.695633 170.42519 125.91885 117.2563 77.5947301 10.5779563 247.695633"></polyline>
                    <polyline id="Fill-23" fill="#2B3C96" points="7.01612206 240.792187 109.507838 71.6954219 91.6013629 0 7.01612206 240.792187"></polyline>
                    <polyline id="Fill-24" fill="#E66D3D" points="2.37882387 230.223639 11.3691905 5.34703252 56.6999966 59.8214952 2.37882387 230.223639"></polyline>
                </g>
                <g id="breakthrough-b" transform="translate(0.000000, 120.496507)" fill="#000000">
                    <path d="M409.160265,178.435245 L409.160265,209.889854 L396.690005,209.889854 L396.690005,128.98147 L409.160265,125.466988 L409.160265,162.394147 C410.942463,158.829459 413.633683,156.017874 417.233927,153.984495 C420.836731,151.951117 424.713523,150.921876 428.874544,150.921876 C435.555224,150.921876 440.95815,152.930151 445.078201,156.946701 C449.200813,160.938148 451.259558,166.737042 451.259558,174.293177 L451.259558,209.889854 L438.784176,209.889854 L438.784176,178.008486 C438.784176,167.314421 434.256985,161.967389 425.200042,161.967389 C420.893065,161.967389 417.141744,163.373181 413.951201,166.159663 C410.755537,168.971248 409.160265,173.063109 409.160265,178.435245" id="Fill-26"></path>
                    <path d="M374.412537,151.800496 L374.412537,202.459236 C374.412537,212.726542 371.570239,220.433298 365.893326,225.5544 C360.213852,230.700605 352.916061,233.261156 344.007634,233.261156 C335.096647,233.261156 327.04091,230.524881 319.837862,225.077434 L325.745232,215.789162 C331.537373,220.08185 337.380728,222.215642 343.285537,222.215642 C349.185225,222.215642 353.860933,220.73454 357.317781,217.74723 C360.769508,214.759921 362.492811,209.990268 362.492811,203.43827 L362.492811,196.032755 C360.638916,199.446823 357.986105,202.183098 354.531817,204.216477 C351.074969,206.249855 347.200738,207.279096 342.893761,207.279096 C335.022389,207.279096 328.561923,204.567925 323.514924,199.195789 C318.465365,193.798549 315.943146,187.095931 315.943146,179.087934 C315.943146,171.079937 318.465365,164.402422 323.514924,159.005183 C328.561923,153.633047 335.001904,150.921876 342.837427,150.921876 C350.667829,150.921876 357.038673,154.084909 361.939716,160.436079 L361.939716,151.800496 L374.412537,151.800496 Z M328.195753,178.610969 C328.195753,183.380622 329.696282,187.497586 332.70502,190.936757 C335.711198,194.401032 339.759552,196.133169 344.842399,196.133169 C349.927807,196.133169 354.047859,194.451239 357.207674,191.112481 C360.359808,187.773724 361.939716,183.58145 361.939716,178.610969 C361.939716,173.615384 360.341883,169.398007 357.15134,165.933732 C353.953115,162.494561 349.835625,160.762424 344.786065,160.762424 C339.736506,160.762424 335.711198,162.544768 332.70502,166.109456 C329.696282,169.674144 328.195753,173.841315 328.195753,178.610969 Z" id="Fill-36"></path>
                    <path d="M287.891461,183.255105 L287.891461,151.800496 L300.366843,151.800496 L300.366843,209.889854 L287.891461,209.889854 L287.891461,199.296203 C285.883928,202.860891 283.118449,205.672476 279.592464,207.705855 C276.069039,209.739233 272.261385,210.768474 268.177182,210.768474 C261.496502,210.768474 256.093576,208.760199 251.973525,204.743649 C247.853474,200.752202 245.794729,194.978411 245.794729,187.397172 L245.794729,151.800496 L258.264989,151.800496 L258.264989,183.681863 C258.264989,194.375929 262.794741,199.722961 271.854245,199.722961 C276.158661,199.722961 279.909982,198.342272 283.103086,195.530687 C286.293629,192.719102 287.891461,188.627241 287.891461,183.255105" id="Fill-35"></path>
                    <path d="M221.788836,202.082684 C215.850739,207.856475 208.424916,210.768474 199.51649,210.768474 C190.608063,210.768474 183.17968,207.856475 177.241583,202.082684 C171.300925,196.28379 168.333156,189.229724 168.333156,180.845175 C168.333156,172.48573 171.300925,165.40656 177.241583,159.607665 C183.17968,153.833874 190.608063,150.921876 199.51649,150.921876 C208.424916,150.921876 215.850739,153.833874 221.788836,159.607665 C227.732055,165.40656 230.699824,172.48573 230.699824,180.845175 C230.699824,189.229724 227.732055,196.28379 221.788836,202.082684 M186.096236,194.551653 C189.624782,198.091237 194.0982,199.848478 199.51649,199.848478 C204.93478,199.848478 209.408198,198.091237 212.936744,194.551653 C216.462729,191.012068 218.224442,186.443242 218.224442,180.845175 C218.224442,175.247108 216.462729,170.678282 212.936744,167.138697 C209.408198,163.624216 204.93478,161.841872 199.51649,161.841872 C194.0982,161.841872 189.624782,163.624216 186.096236,167.138697 C182.570251,170.678282 180.805978,175.247108 180.805978,180.845175 C180.805978,186.443242 182.570251,191.012068 186.096236,194.551653" id="Fill-34"></path>
                    <path d="M165.21175,163.272768 C159.045757,163.272768 154.405898,165.230836 151.289613,169.172076 C148.170767,173.088212 146.611345,178.385038 146.611345,184.987242 L146.611345,209.889854 L134.138523,209.889854 L134.138523,151.800496 L146.611345,151.800496 L146.611345,163.473595 C148.618877,159.833596 151.345947,156.871391 154.797674,154.536771 C158.249401,152.202151 161.905979,150.997186 165.767406,150.921876 L165.877513,163.272768 L165.21175,163.272768" id="Fill-25"></path>
                    <path d="M79.8019868,178.435245 L79.8019868,209.889854 L67.3291655,209.889854 L67.3291655,128.98147 L79.8019868,128.98147 L79.8019868,162.394147 C81.5841843,158.829459 84.2754048,156.017874 87.8756484,153.984495 C91.4784527,151.951117 95.3552443,150.921876 99.5162656,150.921876 C106.196945,150.921876 111.599871,152.930151 115.719923,156.946701 C119.842534,160.938148 121.898719,166.737042 121.898719,174.293177 L121.898719,209.889854 L109.428458,209.889854 L109.428458,178.008486 C109.428458,167.314421 104.896146,161.967389 95.8417637,161.967389 C91.5322259,161.967389 87.7834658,163.373181 84.5929227,166.159663 C81.3972584,168.971248 79.8019868,173.063109 79.8019868,178.435245" id="Fill-33"></path>
                    <path d="M37.8153615,161.641044 L37.8153615,191.112481 C37.8153615,193.87386 38.5553831,196.082962 40.0405477,197.714686 C41.5257122,199.346409 43.6049425,200.174823 46.2807993,200.174823 C48.9515348,200.174823 51.5096027,198.894548 53.9601241,196.3591 L59.0865024,204.96958 C54.7027064,208.835509 49.8605579,210.768474 44.5498144,210.768474 C39.2441922,210.768474 34.7144404,208.961027 30.9656803,205.346131 C27.2117989,201.75634 25.3399795,196.886272 25.3399795,190.786137 L25.3399795,161.641044 L17.8783081,161.641044 L17.8783081,151.800496 L25.3399795,151.800496 L25.3399795,133.575399 L37.8153615,133.575399 L37.8153615,151.800496 L53.4070284,151.800496 L53.4070284,161.641044 L37.8153615,161.641044" id="Fill-32"></path>
                    <polyline id="Fill-31" points="234.069611 114.09513 221.596789 114.09513 221.596789 22.2918539 234.069611 2.13379232 234.069611 79.8289362 258.126715 55.1522556 274.161371 55.1522556 251.924873 78.1721092 300.003234 144.01843 283.827743 144.01843 243.090705 87.7867263 234.069611 96.7486541 234.069611 114.09513"></polyline>
                    <path d="M211.927856,113.241614 L200.566348,113.241614 L200.566348,105.484651 C195.667865,111.233338 189.094732,114.09513 180.854629,114.09513 C174.691197,114.09513 169.587864,112.388097 165.542071,108.974029 C161.493717,105.559961 159.470821,100.991135 159.470821,95.2675512 C159.470821,89.5690705 161.62431,85.2763824 165.931287,82.4396938 C170.235703,79.6030052 176.066254,78.1721092 183.417819,78.1721092 L199.565142,78.1721092 L199.565142,75.98811 C199.565142,68.2813542 195.183906,64.4154246 186.423996,64.4154246 C180.928888,64.4154246 175.211004,66.3985963 169.270346,70.3147328 L163.7061,62.6832873 C170.901467,57.0852204 179.072432,54.2736352 188.206194,54.2736352 C195.183906,54.2736352 200.881305,56.0057725 205.30351,59.4700471 C209.718034,62.9092182 211.927856,68.3566645 211.927856,75.7872825 L211.927856,113.241614 Z M199.455035,91.6024491 L199.455035,86.7072785 L185.422791,86.7072785 C176.434985,86.7072785 171.943642,89.4686567 171.943642,94.9914133 C171.943642,97.8281019 173.060076,100.012101 175.287823,101.493204 C177.513009,102.99941 180.61137,103.72741 184.585465,103.72741 C188.557,103.72741 192.029212,102.647962 194.996981,100.463963 C197.96731,98.2799639 199.455035,95.317758 199.455035,91.6024491 Z" id="Fill-30"></path>
                    <path d="M155.92179,89.5439671 L109.482232,89.5439671 C109.779265,93.7613448 111.745827,97.1754125 115.38448,99.7359633 C119.020573,102.321618 123.179033,103.626996 127.859862,103.626996 C135.283124,103.626996 140.924189,101.342583 144.785617,96.7486541 L151.916967,104.3801 C145.528199,110.856787 137.213838,114.09513 126.966203,114.09513 C118.651842,114.09513 111.581947,111.383959 105.751396,105.961616 C99.9234055,100.539273 97.0094103,93.259276 97.0094103,84.1216242 C97.0094103,75.0090759 99.9771787,67.7290785 105.917837,62.3569426 C111.855934,56.9597032 118.856693,54.2736352 126.91243,54.2736352 C134.965606,54.2736352 141.817848,56.6584619 147.458913,61.4281153 C153.099977,66.1977688 155.92179,72.7497663 155.92179,81.134315 L155.92179,89.5439671 Z M109.482232,79.9293499 L143.448969,79.9293499 C143.448969,75.0592827 141.892106,71.2937669 138.773261,68.6830092 C135.656976,66.0722516 131.813473,64.7417693 127.245311,64.7417693 C122.682271,64.7417693 118.577584,66.1224584 114.941492,68.8587333 C111.300278,71.5699047 109.482232,75.2601102 109.482232,79.9293499 Z" id="Fill-29"></path>
                    <path d="M97.5189753,66.5994238 C91.3555426,66.5994238 86.7156837,68.5825955 83.5968382,72.498732 C80.4805534,76.4399719 78.91857,81.7116941 78.91857,88.339002 L78.91857,113.241614 L66.4483093,113.241614 L66.4483093,55.1522556 L78.91857,55.1522556 L78.91857,66.8253547 C80.9261027,63.1853561 83.6531721,60.1980468 87.1048993,57.863427 C90.5591871,55.5539106 94.213204,54.3489455 98.0746317,54.2736352 L98.1847387,66.5994238 L97.5189753,66.5994238" id="Fill-28"></path>
                    <path d="M32.6249676,54.2736352 C40.5705978,54.2736352 47.3639451,56.9597032 53.0075703,62.3569426 C58.6486349,67.7290785 61.4704475,74.9086621 61.4704475,83.8705898 C61.4704475,92.8074141 58.6665593,100.087411 53.0613435,105.685478 C47.4561278,111.308649 40.9214039,114.09513 33.4622931,114.09513 C25.998061,114.09513 19.2968963,110.906994 13.3587988,104.505617 L13.3587988,113.241614 L0.885977457,113.241614 L0.885977457,32.2077123 L13.3587988,32.2077123 L13.3587988,65.2940449 C18.2598417,57.9387373 24.681898,54.2736352 32.6249676,54.2736352 M13.1360241,84.2973483 C13.1360241,89.8201049 14.8439633,94.3638274 18.2598417,97.8783088 C21.6731595,101.417894 25.8316202,103.175134 30.7326631,103.175134 C35.633706,103.175134 39.9022737,101.442997 43.5409268,97.9536191 C47.1770193,94.4642411 48.9976261,89.9205187 48.9976261,84.3475552 C48.9976261,78.7745917 47.2154287,74.1555589 43.6510338,70.4904568 C40.0891996,66.8002513 35.8180713,64.9677002 30.8453308,64.9677002 C25.867469,64.9677002 21.6731595,66.8002513 18.2598417,70.4904568 C14.8439633,74.1555589 13.1360241,78.7745917 13.1360241,84.2973483" id="Fill-27"></path>
                </g>
            </g>
        </g>
    </g>
</svg>