<?xml version="1.0" encoding="UTF-8"?>
<svg width="58px" height="26px" viewBox="0 0 58 26" version="1.1" xmlns="http://www.w3.org/2000/svg" xmlns:xlink="http://www.w3.org/1999/xlink">
    <!-- Generator: Sketch 48.2 (47327) - http://www.bohemiancoding.com/sketch -->
    <title>darklogo58x26</title>
    <desc>Created with Sketch.</desc>
    <defs></defs>
    <g id="Page-1" stroke="none" stroke-width="1" fill="none" fill-rule="evenodd">
        <g id="darklogo58x26">
            <rect id="Rectangle" fill="#FFFFFF" x="0" y="0" width="58" height="26"></rect>
            <g id="darklogo" transform="translate(15.000000, 3.000000)">
                <g id="feathers" transform="translate(16.930876, 0.000000)">
                    <polyline id="Fill-21" fill="#32A7DE" points="0.802434392 14.7332582 10.6417979 11.9406513 10.0278309 8.25551673 0.802434392 14.7332582"></polyline>
                    <polyline id="Fill-22" fill="#EBCF5D" points="0.613521464 14.3663463 9.884661 7.3032931 6.80086538 4.50049422 0.613521464 14.3663463"></polyline>
                    <polyline id="Fill-23" fill="#2B3C96" points="0.406935079 13.9659465 6.3514546 4.15833435 5.31287905 0 0.406935079 13.9659465"></polyline>
                    <polyline id="Fill-24" fill="#E66D3D" points="0.137971784 13.3529707 0.659413048 0.310127877 3.2885998 3.46964662 0.137971784 13.3529707"></polyline>
                </g>
                <g id="breakthrough-b" transform="translate(0.000000, 6.988797)" fill="#000000">
                    <path d="M23.7312954,10.3492439 L23.7312954,12.1736112 L23.0080203,12.1736112 L23.0080203,7.48092503 L23.7312954,7.27708511 L23.7312954,9.41886026 C23.8346628,9.21210835 23.9907536,9.04903641 24.1995678,8.93110046 C24.4085304,8.8131645 24.6333843,8.75346853 24.8747236,8.75346853 C25.262203,8.75346853 25.5755727,8.86994848 25.8145357,9.10290839 C26.0536472,9.3344123 26.1730544,9.67074816 26.1730544,10.109004 L26.1730544,12.1736112 L25.4494822,12.1736112 L25.4494822,10.3244919 C25.4494822,9.70423615 25.1869051,9.39410827 24.6616025,9.39410827 C24.4117978,9.39410827 24.1942212,9.47564424 24.0091697,9.63726018 C23.8238211,9.80033211 23.7312954,10.03766 23.7312954,10.3492439" id="Fill-26"></path>
                    <path d="M21.7159271,8.80442851 L21.7159271,11.7426353 C21.7159271,12.3381391 21.5510739,12.7851309 21.2218129,13.0821548 C20.8924034,13.3806347 20.4691315,13.5291466 19.9524428,13.5291466 C19.4356055,13.5291466 18.9683728,13.3704427 18.550596,13.0544908 L18.8932234,12.515771 C19.2291677,12.7647469 19.5680822,12.8885069 19.9105611,12.8885069 C20.2527431,12.8885069 20.5239341,12.8026029 20.7244313,12.629339 C20.9246315,12.4560751 21.0245831,12.1794352 21.0245831,11.7994193 L21.0245831,11.3698995 C20.9170571,11.5679154 20.7631941,11.7266193 20.5628454,11.8445553 C20.3623482,11.9624913 20.1376428,12.0221872 19.8878381,12.0221872 C19.4312986,12.0221872 19.0565915,11.8649393 18.7638656,11.5533554 C18.4709912,11.2403155 18.3247025,10.8515637 18.3247025,10.3870999 C18.3247025,9.92263606 18.4709912,9.53534022 18.7638656,9.22230034 C19.0565915,8.91071647 19.4301104,8.75346853 19.8845708,8.75346853 C20.3387341,8.75346853 20.708243,8.93692446 20.9925035,9.30529231 L20.9925035,8.80442851 L21.7159271,8.80442851 Z M19.0353537,10.3594359 C19.0353537,10.6360758 19.1223843,10.8748597 19.2968912,11.0743316 C19.4712495,11.2752595 19.706054,11.3757235 20.0008591,11.3757235 C20.2958128,11.3757235 20.5347758,11.2781715 20.7180451,11.0845236 C20.9008688,10.8908757 20.9925035,10.6477238 20.9925035,10.3594359 C20.9925035,10.069692 20.8998292,9.8250841 20.7147777,9.62415618 C20.5292807,9.42468426 20.2904662,9.3242203 19.9975918,9.3242203 C19.7047173,9.3242203 19.4712495,9.42759626 19.2968912,9.63434818 C19.1223843,9.8411001 19.0353537,10.082796 19.0353537,10.3594359 Z" id="Fill-36"></path>
                    <path d="M16.6977047,10.6287958 L16.6977047,8.80442851 L17.4212769,8.80442851 L17.4212769,12.1736112 L16.6977047,12.1736112 L16.6977047,11.5591794 C16.5812678,11.7659313 16.4208701,11.9290033 16.2163629,12.0469392 C16.0120043,12.1648752 15.7911603,12.2245712 15.5542766,12.2245712 C15.1667971,12.2245712 14.8534274,12.1080912 14.6144645,11.8751313 C14.3755015,11.6436274 14.2560943,11.3087475 14.2560943,10.8690357 L14.2560943,8.80442851 L14.9793694,8.80442851 L14.9793694,10.6535478 C14.9793694,11.2738035 15.242095,11.5839314 15.7675462,11.5839314 C16.0172023,11.5839314 16.234779,11.5038514 16.419979,11.3407795 C16.6050305,11.1777076 16.6977047,10.9403797 16.6977047,10.6287958" id="Fill-35"></path>
                    <path d="M12.8637525,11.7207954 C12.5193429,12.0556752 12.0886452,12.2245712 11.5719564,12.2245712 C11.0552677,12.2245712 10.6244214,12.0556752 10.2800118,11.7207954 C9.93545363,11.3844595 9.76332306,10.9753236 9.76332306,10.4890198 C9.76332306,10.004172 9.93545363,9.5935802 10.2800118,9.25724433 C10.6244214,8.92236446 11.0552677,8.75346853 11.5719564,8.75346853 C12.0886452,8.75346853 12.5193429,8.92236446 12.8637525,9.25724433 C13.2084592,9.5935802 13.3805898,10.004172 13.3805898,10.4890198 C13.3805898,10.9753236 13.2084592,11.3844595 12.8637525,11.7207954 M10.7935817,11.2839955 C10.9982374,11.4892914 11.2576956,11.5912114 11.5719564,11.5912114 C11.8862172,11.5912114 12.1456755,11.4892914 12.3503311,11.2839955 C12.5548383,11.0786996 12.6570176,10.8137077 12.6570176,10.4890198 C12.6570176,10.164332 12.5548383,9.89934007 12.3503311,9.69404416 C12.1456755,9.49020424 11.8862172,9.38682828 11.5719564,9.38682828 C11.2576956,9.38682828 10.9982374,9.49020424 10.7935817,9.69404416 C10.5890745,9.89934007 10.4867467,10.164332 10.4867467,10.4890198 C10.4867467,10.8137077 10.5890745,11.0786996 10.7935817,11.2839955" id="Fill-34"></path>
                    <path d="M9.5822815,9.46982024 C9.22465389,9.46982024 8.95554207,9.5833882 8.77479755,9.81198011 C8.59390451,10.039116 8.50345799,10.3463319 8.50345799,10.7292597 L8.50345799,12.1736112 L7.78003435,12.1736112 L7.78003435,8.80442851 L8.50345799,8.80442851 L8.50345799,9.48146824 C8.61989489,9.27034832 8.77806491,9.09854039 8.97826509,8.96313245 C9.17846527,8.8277245 9.39054676,8.75783653 9.61450957,8.75346853 L9.62089578,9.46982024 L9.5822815,9.46982024" id="Fill-25"></path>
                    <path d="M4.62851524,10.3492439 L4.62851524,12.1736112 L3.9050916,12.1736112 L3.9050916,7.48092503 L4.62851524,7.48092503 L4.62851524,9.41886026 C4.73188269,9.21210835 4.88797348,9.04903641 5.09678761,8.93110046 C5.30575026,8.8131645 5.53060417,8.75346853 5.7719434,8.75346853 C6.15942283,8.75346853 6.47279254,8.86994848 6.71175551,9.10290839 C6.950867,9.3344123 7.07012571,9.67074816 7.07012571,10.109004 L7.07012571,12.1736112 L6.34685059,12.1736112 L6.34685059,10.3244919 C6.34685059,9.70423615 6.08397647,9.39410827 5.55882229,9.39410827 C5.3088691,9.39410827 5.09144102,9.47564424 4.90638952,9.63726018 C4.72104099,9.80033211 4.62851524,10.03766 4.62851524,10.3492439" id="Fill-33"></path>
                    <path d="M2.19329097,9.37518028 L2.19329097,11.0845236 C2.19329097,11.2446835 2.23621222,11.3728115 2.32235176,11.4674515 C2.40849131,11.5620914 2.52908667,11.6101394 2.68428636,11.6101394 C2.83918902,11.6101394 2.98755695,11.5358834 3.1296872,11.3888275 L3.42701714,11.8882353 C3.17275697,12.1124592 2.89191236,12.2245712 2.58388924,12.2245712 C2.27616315,12.2245712 2.01343754,12.1197392 1.79600946,11.9100753 C1.57828434,11.7018674 1.46971881,11.4194035 1.46971881,11.0655956 L1.46971881,9.37518028 L1.03694187,9.37518028 L1.03694187,8.80442851 L1.46971881,8.80442851 L1.46971881,7.74737293 L2.19329097,7.74737293 L2.19329097,8.80442851 L3.09760765,8.80442851 L3.09760765,9.37518028 L2.19329097,9.37518028" id="Fill-32"></path>
                    <polyline id="Fill-31" points="13.5760374 6.61751738 12.8526138 6.61751738 12.8526138 1.29292749 13.5760374 0.123759951 13.5760374 4.63007816 14.9713495 3.19883073 15.9013595 3.19883073 14.6116426 4.5339822 17.4001876 8.35306869 16.4620091 8.35306869 14.0992609 5.09162998 13.5760374 5.61142177 13.5760374 6.61751738"></polyline>
                    <path d="M12.2918157,6.5680134 L11.6328482,6.5680134 L11.6328482,6.11810957 C11.3487362,6.45153344 10.9674945,6.61751738 10.4895685,6.61751738 C10.1320894,6.61751738 9.83609612,6.51850941 9.60144012,6.32049349 C9.36663561,6.12247757 9.24930762,5.85748568 9.24930762,5.52551781 C9.24930762,5.19500594 9.37420995,4.94603004 9.62401463,4.7815021 C9.87367078,4.61697417 10.2118427,4.5339822 10.6382335,4.5339822 L11.5747782,4.5339822 L11.5747782,4.40731025 C11.5747782,3.96031843 11.3206666,3.73609452 10.8125918,3.73609452 C10.4938755,3.73609452 10.1622382,3.85111847 9.81768008,4.07825438 L9.49495383,3.63563056 C9.91228506,3.31094269 10.3862011,3.14787075 10.9159592,3.14787075 C11.3206666,3.14787075 11.6511157,3.24833471 11.9076036,3.44926263 C12.163646,3.64873455 12.2918157,3.96468643 12.2918157,4.39566226 L12.2918157,6.5680134 Z M11.568392,5.31294189 L11.568392,5.02902201 L10.7545219,5.02902201 C10.2332291,5.02902201 9.97273126,5.18918194 9.97273126,5.50950182 C9.97273126,5.67402975 10.0374844,5.8007017 10.1666937,5.88660567 C10.2957545,5.97396563 10.4754594,6.01618961 10.705957,6.01618961 C10.936306,6.01618961 11.1376943,5.95358164 11.3098249,5.82690969 C11.482104,5.70023774 11.568392,5.52842981 11.568392,5.31294189 Z" id="Fill-30"></path>
                    <path d="M9.04346381,5.19354994 L6.34996943,5.19354994 C6.36719734,5.43815784 6.48125798,5.63617376 6.69229986,5.78468571 C6.90319322,5.93465365 7.14438394,6.01036562 7.41587201,6.01036562 C7.84642121,6.01036562 8.17360295,5.87786967 8.39756576,5.61142177 L8.81118408,6.0540456 C8.44063553,6.42969345 7.95840261,6.61751738 7.36403977,6.61751738 C6.88180685,6.61751738 6.47175293,6.46026944 6.13358096,6.14577356 C5.79555752,5.83127769 5.6265458,5.40903785 5.6265458,4.87905407 C5.6265458,4.35052627 5.79867636,3.92828644 6.14323453,3.61670257 C6.48764419,3.30366269 6.89368817,3.14787075 7.36092093,3.14787075 C7.82800517,3.14787075 8.22543519,3.2861907 8.55261694,3.56283059 C8.87979868,3.83947048 9.04346381,4.21948633 9.04346381,4.70579013 L9.04346381,5.19354994 Z M6.34996943,4.63590216 L8.32004017,4.63590216 C8.32004017,4.35343827 8.22974217,4.13503836 8.04884913,3.98361442 C7.86810461,3.83219048 7.64518142,3.75502251 7.38022806,3.75502251 C7.11557175,3.75502251 6.87749987,3.83510248 6.66660651,3.99380642 C6.45541612,4.15105435 6.34996943,4.36508627 6.34996943,4.63590216 Z" id="Fill-29"></path>
                    <path d="M5.65610057,3.86276647 C5.29862147,3.86276647 5.02950966,3.97779042 4.84861662,4.20492633 C4.6678721,4.43351824 4.57727706,4.73927812 4.57727706,5.12366197 L4.57727706,6.5680134 L3.85400194,6.5680134 L3.85400194,3.19883073 L4.57727706,3.19883073 L4.57727706,3.87587046 C4.69371396,3.66475055 4.85188398,3.49148662 5.05208416,3.35607867 C5.25243285,3.22212672 5.46436583,3.15223875 5.68832864,3.14787075 L5.69471485,3.86276647 L5.65610057,3.86276647" id="Fill-28"></path>
                    <path d="M1.89224812,3.14787075 C2.35309467,3.14787075 2.74710882,3.30366269 3.07443908,3.61670257 C3.40162082,3.92828644 3.56528595,4.34470228 3.56528595,4.86449407 C3.56528595,5.38282987 3.40266044,5.8050697 3.07755792,6.12975757 C2.75245541,6.45590144 2.37344142,6.61751738 1.940813,6.61751738 C1.50788754,6.61751738 1.11921998,6.43260545 0.774810332,6.0613256 L0.774810332,6.5680134 L0.0513866925,6.5680134 L0.0513866925,1.86804726 L0.774810332,1.86804726 L0.774810332,3.7870545 C1.05907082,3.36044667 1.43155008,3.14787075 1.89224812,3.14787075 M0.7618894,4.88924606 C0.7618894,5.20956593 0.860949874,5.47310183 1.05907082,5.67694175 C1.25704325,5.88223767 1.49823397,5.98415763 1.78249446,5.98415763 C2.06675495,5.98415763 2.31433188,5.88369367 2.52537375,5.68130975 C2.73626712,5.47892583 2.84186231,5.21538993 2.84186231,4.89215806 C2.84186231,4.56892619 2.73849486,4.30102229 2.53175996,4.08844638 C2.32517358,3.87441446 2.07744813,3.76812651 1.78902918,3.76812651 C1.5003132,3.76812651 1.25704325,3.87441446 1.05907082,4.08844638 C0.860949874,4.30102229 0.7618894,4.56892619 0.7618894,4.88924606" id="Fill-27"></path>
                </g>
            </g>
        </g>
    </g>
</svg>