<?xml version="1.0" encoding="utf-8"?>
<!-- Generator: Adobe Illustrator 21.0.2, SVG Export Plug-In . SVG Version: 6.00 Build 0)  -->
<svg version="1.1" id="Layer_1" xmlns="http://www.w3.org/2000/svg" xmlns:xlink="http://www.w3.org/1999/xlink" x="0px" y="0px"
	 viewBox="0 0 202 72" style="enable-background:new 0 0 202 72;" xml:space="preserve">
<style type="text/css">
	.st0{fill:none;}
	.st1{fill:#1D1D1B;}
</style>
<g>
	<rect x="0.3" y="0" class="st0" width="201.5" height="72"/>
	<g>
		<g>
			<path class="st1" d="M44.7,54h8.6L45,18h-9.8L18.3,54h9.1l2.9-7h13L44.7,54z M33.6,39l5.2-12.5h0.1L41.5,39H33.6z"/>
			<path class="st1" d="M79.8,45.6H54.5L53.3,54h25.3L79.8,45.6z M82.7,26.4H57.4l1.3-8.4H84L82.7,26.4z M77.6,40.2H55.3l1.3-8.4
				h22.3L77.6,40.2z"/>
			<path class="st1" d="M107.7,44.8c-2.4,1.1-6,1.3-7.8,1.3c-5.7,0-9.5-3.9-9.3-9.7c0.2-6.1,4.8-10.5,11.1-10.5c3,0,5.6,1,7.9,3
				l1.7-8.6c-3.6-2.1-6.6-3-10.3-3c-10.4,0-18.9,8.6-19.3,19.5c-0.3,10.5,6.5,17.9,16.7,17.9c1.8,0,5.6-0.2,8-1.3L107.7,44.8z"/>
			<path class="st1" d="M129.2,17.4c9.6,0.7,15.6,8.5,14.5,19c-1.1,10.8-9.8,18.8-19.7,18.1c-9.6-0.7-15.6-8.5-14.5-19
				C110.7,24.7,119.4,16.7,129.2,17.4 M135.2,37.3c1.3-6.1-1-10.8-5.6-11.8c-5.1-1-9.7,2.8-11,9.3c-1.3,6.1,1,10.8,5.6,11.8
				C129.2,47.6,133.8,43.7,135.2,37.3z"/>
			<polygon class="st1" points="183.7,54 183.1,18 175,18 164.6,38.3 160.4,18 152.3,18 141.1,54 150,54 156.1,32.9 159.9,54 
				164.5,54 175,32.9 174.9,54 			"/>
		</g>
	</g>
</g>
</svg>
