<?xml version="1.0" encoding="utf-8"?>
<!-- Generator: Adobe Illustrator 21.0.0, SVG Export Plug-In . SVG Version: 6.00 Build 0)  -->
<svg version="1.1" id="Layer_1" xmlns="http://www.w3.org/2000/svg" xmlns:xlink="http://www.w3.org/1999/xlink" x="0px" y="0px"
	 viewBox="0 0 209.6 28.7" style="enable-background:new 0 0 209.6 28.7;" xml:space="preserve">
<g>
	<path d="M120.1,28.1l0.1-16.2l-8.1,16.2h-3.5L105.7,12L101,28.1h-6.9l8.6-27.6h6.2l3.2,15.6l8-15.6h6.2l0.5,27.6H120.1z M89.7,15.3
		c1-4.7-0.7-8.3-4.3-9c-3.9-0.8-7.4,2.2-8.5,7.1c-1,4.7,0.7,8.3,4.3,9C85.1,23.2,88.6,20.2,89.7,15.3 M85.1,0.1
		c7.4,0.5,12,6.5,11.1,14.6c-0.9,8.3-7.5,14.4-15.1,13.9C73.8,28,69.2,22,70,14C70.9,5.7,77.6-0.5,85.1,0.1 M67.6,27.7
		c-1.8,0.9-4.8,1-6.1,1c-7.8,0-13-5.7-12.8-13.7C49,6.6,55.5,0,63.5,0c2.9,0,5.2,0.7,7.9,2.3l-1.3,6.6c-1.8-1.5-3.8-2.3-6.1-2.3
		c-4.8,0-8.3,3.4-8.5,8c-0.1,4.4,2.7,7.4,7.1,7.4c1.4,0,4.1-0.1,6-1L67.6,27.7z M45.5,17.6H28.4l1-6.4h17.1L45.5,17.6z M49.4,7H30
		l1-6.4h19.4L49.4,7z M47.2,21.7H27.8l-1,6.4h19.4L47.2,21.7z M11.7,16.7l4-9.6h0.1l2,9.6H11.7z M20.3,28.1h6.6L20.5,0.5H13L0,28.1
		h6.9l2.3-5.4h9.9L20.3,28.1z"/>
	<path d="M208.5,28.1h1.1v-1.4h-1.1V28.1z M205.9,24.6c0,0.6-0.1,1.1-0.3,1.5c-0.2,0.4-0.5,0.7-0.8,1c-0.3,0.2-0.5,0.3-0.8,0.4
		c-0.2,0.1-0.5,0.1-0.8,0.1c-0.3,0-0.6-0.1-0.9-0.2c-0.3-0.1-0.5-0.3-0.8-0.5c-0.2-0.3-0.4-0.6-0.6-1c-0.1-0.4-0.2-1-0.2-1.6
		c0-0.6,0.1-1.2,0.2-1.6c0.1-0.4,0.3-0.8,0.5-1.1c0.2-0.3,0.5-0.5,0.8-0.6c0.3-0.1,0.7-0.2,1-0.2c0.3,0,0.6,0,0.8,0.1
		c0.2,0.1,0.5,0.2,0.7,0.4c0.2,0.1,0.3,0.3,0.5,0.4c0.1,0.2,0.2,0.3,0.3,0.5c0.1,0.2,0.1,0.4,0.2,0.7c0,0.3,0.1,0.6,0.1,0.9V24.6z
		 M205.8,28.1h0.9V17.3h-0.9v4.1c-0.4-0.5-0.8-0.8-1.2-1c-0.4-0.2-0.9-0.3-1.3-0.3c-1.1,0-1.9,0.4-2.6,1.1c-0.6,0.7-0.9,1.8-0.9,3.1
		c0,0.5,0.1,1,0.2,1.5c0.1,0.5,0.3,0.9,0.6,1.3c0.3,0.4,0.6,0.7,1,0.9c0.4,0.2,0.9,0.3,1.5,0.3c0.6,0,1.1-0.1,1.6-0.4
		c0.4-0.3,0.8-0.6,1.1-1V28.1z M192.2,23.7c0.1-1,0.4-1.7,0.8-2.2c0.5-0.5,1.1-0.7,1.8-0.7c0.4,0,0.8,0.1,1.1,0.2
		c0.3,0.1,0.6,0.3,0.8,0.6c0.2,0.3,0.3,0.6,0.4,0.9s0.1,0.7,0.1,1.2H192.2z M197.2,26.1c-0.1,0.2-0.1,0.4-0.2,0.6
		c-0.1,0.2-0.3,0.4-0.4,0.5c-0.2,0.1-0.4,0.2-0.7,0.3c-0.3,0.1-0.6,0.1-1,0.1c-0.4,0-0.8-0.1-1.2-0.3c-0.3-0.2-0.6-0.4-0.8-0.7
		c-0.2-0.3-0.4-0.6-0.5-1c-0.1-0.4-0.2-0.8-0.2-1.3h6v-0.6c0-0.5-0.1-1-0.2-1.5c-0.1-0.5-0.3-0.9-0.6-1.2c-0.3-0.3-0.6-0.6-1-0.8
		c-0.4-0.2-0.9-0.3-1.5-0.3c-0.5,0-1,0.1-1.4,0.3c-0.4,0.2-0.8,0.5-1.1,0.8c-0.3,0.4-0.6,0.8-0.7,1.3c-0.2,0.5-0.3,1.1-0.3,1.8
		c0,1.3,0.3,2.3,0.9,3c0.6,0.7,1.5,1.1,2.6,1.1c1,0,1.7-0.2,2.2-0.6c0.5-0.4,0.8-1,1-1.7H197.2z M186.6,28.1h0.9v-4.7
		c0-0.4,0.1-0.7,0.2-1c0.2-0.3,0.3-0.5,0.6-0.7c0.2-0.2,0.5-0.4,0.8-0.5c0.3-0.1,0.5-0.1,0.8-0.1c0.2,0,0.3,0,0.5,0l0.1-0.8
		c-0.1,0-0.2,0-0.3,0c-0.1,0-0.2,0-0.3,0c-0.5,0-0.9,0.1-1.3,0.4c-0.4,0.2-0.8,0.6-1.1,1v-1.3h-0.9V28.1z M178.6,23.7
		c0.1-1,0.4-1.7,0.8-2.2c0.5-0.5,1.1-0.7,1.8-0.7c0.4,0,0.8,0.1,1.1,0.2c0.3,0.1,0.6,0.3,0.8,0.6c0.2,0.3,0.3,0.6,0.4,0.9
		c0.1,0.4,0.1,0.7,0.1,1.2H178.6z M183.6,26.1c-0.1,0.2-0.1,0.4-0.3,0.6c-0.1,0.2-0.2,0.4-0.4,0.5c-0.2,0.1-0.4,0.2-0.7,0.3
		c-0.3,0.1-0.6,0.1-1,0.1c-0.4,0-0.8-0.1-1.2-0.3c-0.3-0.2-0.6-0.4-0.8-0.7c-0.2-0.3-0.4-0.6-0.5-1c-0.1-0.4-0.2-0.8-0.2-1.3h6v-0.6
		c0-0.5-0.1-1-0.2-1.5c-0.1-0.5-0.3-0.9-0.6-1.2c-0.3-0.3-0.6-0.6-1-0.8c-0.4-0.2-0.9-0.3-1.5-0.3c-0.5,0-1,0.1-1.4,0.3
		c-0.4,0.2-0.8,0.5-1.1,0.8c-0.3,0.4-0.6,0.8-0.7,1.3c-0.2,0.5-0.3,1.1-0.3,1.8c0,1.3,0.3,2.3,0.9,3c0.6,0.7,1.5,1.1,2.6,1.1
		c1,0,1.7-0.2,2.2-0.6c0.5-0.4,0.8-1,1-1.7H183.6z M172.6,28.1h1l3.2-7.8h-1l-2.7,6.9l-2.7-6.9h-1L172.6,28.1z M166.8,18.6h1v-1.3
		h-1V18.6z M166.8,28.1h0.9v-7.8h-0.9V28.1z M163.4,28.1h0.9V17.3h-0.9V28.1z M155.6,23.7c0.1-1,0.4-1.7,0.8-2.2s1.1-0.7,1.8-0.7
		c0.4,0,0.8,0.1,1.1,0.2c0.3,0.1,0.6,0.3,0.8,0.6c0.2,0.3,0.3,0.6,0.4,0.9c0.1,0.4,0.1,0.7,0.1,1.2H155.6z M160.6,26.1
		c-0.1,0.2-0.1,0.4-0.3,0.6c-0.1,0.2-0.2,0.4-0.4,0.5c-0.2,0.1-0.4,0.2-0.7,0.3c-0.3,0.1-0.6,0.1-1,0.1c-0.4,0-0.8-0.1-1.2-0.3
		c-0.3-0.2-0.6-0.4-0.8-0.7c-0.2-0.3-0.4-0.6-0.5-1c-0.1-0.4-0.2-0.8-0.2-1.3h6v-0.6c0-0.5-0.1-1-0.2-1.5c-0.1-0.5-0.3-0.9-0.6-1.2
		c-0.3-0.3-0.6-0.6-1-0.8c-0.4-0.2-0.9-0.3-1.5-0.3c-0.5,0-1,0.1-1.4,0.3c-0.4,0.2-0.8,0.5-1.1,0.8c-0.3,0.4-0.6,0.8-0.7,1.3
		c-0.2,0.5-0.3,1.1-0.3,1.8c0,1.3,0.3,2.3,0.9,3c0.6,0.7,1.5,1.1,2.6,1.1c1,0,1.7-0.2,2.2-0.6c0.5-0.4,0.8-1,1-1.7H160.6z
		 M145.4,27.3v-9.2h2.7c1.4,0,2.3,0.4,3,1.2c0.6,0.8,0.9,1.9,0.9,3.4c0,1.5-0.3,2.6-1,3.4c-0.7,0.8-1.7,1.2-3.2,1.2H145.4z
		 M144.4,28.1h3.3c0.8,0,1.5-0.1,2.2-0.3c0.6-0.2,1.2-0.6,1.7-1c0.5-0.5,0.8-1,1-1.7s0.4-1.5,0.4-2.4c0-0.9-0.1-1.7-0.3-2.4
		c-0.2-0.7-0.6-1.2-1-1.7c-0.4-0.4-0.9-0.8-1.5-1c-0.6-0.2-1.3-0.3-2-0.3h-3.7V28.1z"/>
	<path d="M208.5,11.4h1.1V9.9h-1.1V11.4z M204,8.8c0,0.4,0,0.7,0,1c0,0.3,0.1,0.6,0.2,0.9c0.1,0.2,0.3,0.4,0.6,0.6
		c0.3,0.2,0.6,0.2,1,0.2c0.4,0,0.6,0,0.9-0.1c0.2-0.1,0.4-0.1,0.6-0.2l-0.2-0.7c-0.1,0.1-0.3,0.1-0.5,0.1c-0.2,0-0.4,0.1-0.7,0.1
		c-0.4,0-0.7-0.1-0.8-0.4c-0.2-0.3-0.2-0.6-0.2-1V4.3h2.2V3.5h-2.2V1.4H204v2.2h-1.2v0.7h1.2V8.8z M200.4,1.8h1V0.5h-1V1.8z
		 M200.5,11.4h0.9V3.5h-0.9V11.4z M189.5,6.9c0.1-1,0.4-1.7,0.8-2.2c0.5-0.5,1.1-0.7,1.8-0.7c0.4,0,0.8,0.1,1.1,0.2
		c0.3,0.1,0.6,0.3,0.8,0.6c0.2,0.3,0.3,0.6,0.4,0.9c0.1,0.4,0.1,0.7,0.1,1.2H189.5z M194.5,9.3c-0.1,0.2-0.1,0.4-0.3,0.6
		c-0.1,0.2-0.2,0.4-0.4,0.5c-0.2,0.1-0.4,0.2-0.7,0.3c-0.3,0.1-0.6,0.1-1,0.1c-0.4,0-0.8-0.1-1.2-0.3c-0.3-0.2-0.6-0.4-0.8-0.7
		c-0.2-0.3-0.4-0.6-0.5-1c-0.1-0.4-0.2-0.8-0.2-1.3h6V7.1c0-0.5-0.1-1-0.2-1.5c-0.1-0.5-0.3-0.9-0.6-1.2c-0.3-0.3-0.6-0.6-1-0.8
		c-0.4-0.2-0.9-0.3-1.5-0.3c-0.5,0-1,0.1-1.4,0.3c-0.4,0.2-0.8,0.5-1.1,0.8c-0.3,0.4-0.6,0.8-0.7,1.3c-0.2,0.5-0.3,1.1-0.3,1.8
		c0,1.3,0.3,2.3,0.9,3c0.6,0.7,1.5,1.1,2.6,1.1c1,0,1.7-0.2,2.2-0.6c0.5-0.4,0.8-1,1-1.7H194.5z M180.4,11.4h0.9V6.8
		c0-0.5,0.1-0.9,0.2-1.1c0.2-0.3,0.4-0.5,0.7-0.8c0.3-0.3,0.6-0.4,0.9-0.6c0.3-0.1,0.7-0.2,1-0.2c0.6,0,1.1,0.2,1.4,0.5
		c0.3,0.4,0.4,0.9,0.4,1.8v5h0.9V6.1c0-0.9-0.2-1.6-0.6-2.1c-0.4-0.5-1.1-0.7-2-0.7c-0.5,0-1.1,0.1-1.5,0.4
		c-0.5,0.2-0.9,0.6-1.4,1.2V3.5h-0.9V11.4z M177.3,1.8h1V0.5h-1V1.8z M177.3,11.4h0.9V3.5h-0.9V11.4z M174.3,7.4
		c0,0.6-0.1,1.1-0.3,1.5c-0.2,0.4-0.5,0.7-0.8,1c-0.3,0.2-0.5,0.3-0.7,0.4c-0.2,0.1-0.5,0.1-0.8,0.1c-0.3,0-0.6-0.1-0.9-0.2
		c-0.3-0.1-0.6-0.3-0.8-0.5c-0.2-0.2-0.4-0.6-0.6-1c-0.1-0.4-0.2-0.9-0.2-1.5c0-0.6,0.1-1.1,0.2-1.5c0.1-0.4,0.3-0.7,0.5-1
		c0.2-0.3,0.5-0.5,0.8-0.6c0.3-0.1,0.7-0.2,1-0.2c0.3,0,0.6,0,0.8,0.1c0.2,0.1,0.5,0.2,0.7,0.4c0.2,0.1,0.3,0.3,0.5,0.4
		c0.1,0.2,0.2,0.3,0.3,0.5c0.1,0.2,0.1,0.4,0.2,0.7c0,0.3,0.1,0.6,0.1,0.9V7.4z M168.5,12.2c0.1,0.4,0.2,0.8,0.3,1.1
		c0.2,0.3,0.4,0.5,0.7,0.7c0.3,0.2,0.6,0.3,1,0.4c0.4,0.1,0.8,0.1,1.2,0.1c1.2,0,2-0.3,2.6-0.9c0.5-0.6,0.8-1.4,0.8-2.5V3.5h-0.9
		v1.1c-0.4-0.5-0.8-0.8-1.2-1c-0.4-0.2-0.9-0.3-1.3-0.3c-0.5,0-1,0.1-1.5,0.3c-0.4,0.2-0.8,0.5-1.1,0.8c-0.3,0.3-0.5,0.8-0.7,1.3
		c-0.2,0.5-0.2,1-0.2,1.7c0,0.5,0.1,1,0.2,1.5c0.1,0.5,0.3,0.9,0.6,1.3c0.3,0.4,0.6,0.7,1,0.9c0.4,0.2,0.9,0.3,1.5,0.3
		c0.6,0,1.1-0.1,1.6-0.4c0.4-0.2,0.8-0.6,1.1-1.1V11c0,1-0.2,1.7-0.6,2.1c-0.4,0.4-1,0.6-1.9,0.6c-0.8,0-1.3-0.1-1.7-0.4
		s-0.6-0.6-0.7-1.1H168.5z M165.6,8.3c0,0.2,0,0.5,0,0.6c0,0.2-0.1,0.3-0.2,0.5c-0.1,0.1-0.2,0.3-0.3,0.4c-0.1,0.1-0.3,0.2-0.4,0.4
		c-0.2,0.2-0.5,0.3-0.8,0.4c-0.3,0.1-0.7,0.1-1,0.1c-0.7,0-1.1-0.1-1.4-0.4c-0.3-0.3-0.4-0.7-0.4-1.1c0-0.3,0.1-0.6,0.2-0.8
		c0.1-0.2,0.3-0.4,0.5-0.6c0.2-0.2,0.6-0.3,1-0.4c0.4-0.1,0.9-0.1,1.5-0.2l1.4-0.1V8.3z M165.6,11.4h0.9V6.2c0-0.5-0.1-0.9-0.2-1.2
		c-0.1-0.4-0.3-0.7-0.5-0.9c-0.2-0.2-0.5-0.4-0.9-0.6c-0.4-0.1-0.8-0.2-1.4-0.2c-1.8,0-2.8,0.6-3.1,1.9l0.8,0.1
		c0.1-0.2,0.1-0.4,0.2-0.5c0.1-0.2,0.2-0.3,0.4-0.4c0.2-0.1,0.4-0.2,0.6-0.3c0.3-0.1,0.6-0.1,0.9-0.1c0.8,0,1.3,0.2,1.6,0.5
		c0.3,0.4,0.4,0.9,0.4,1.7v0.2L164,6.6c-0.5,0-1,0.1-1.5,0.1c-0.5,0.1-0.9,0.2-1.3,0.4c-0.4,0.2-0.7,0.5-0.9,0.8
		c-0.2,0.3-0.3,0.8-0.3,1.3c0,0.8,0.2,1.4,0.7,1.8c0.5,0.4,1.2,0.6,2,0.6c0.3,0,0.6,0,0.9-0.1c0.3-0.1,0.5-0.2,0.8-0.3
		c0.2-0.1,0.4-0.3,0.6-0.4c0.2-0.2,0.3-0.3,0.5-0.5V11.4z M147.7,11.4h0.9V6.7c0-0.3,0-0.5,0.1-0.7c0.1-0.2,0.1-0.4,0.2-0.5
		c0.1-0.2,0.2-0.3,0.3-0.4c0.1-0.1,0.2-0.2,0.3-0.3c0.3-0.2,0.5-0.4,0.8-0.5c0.3-0.1,0.6-0.2,0.9-0.2c0.5,0,0.9,0.2,1.2,0.5
		c0.3,0.3,0.4,0.9,0.4,1.6v5.2h0.9v-5c0-0.4,0.1-0.7,0.2-1c0.2-0.3,0.4-0.5,0.6-0.7c0.3-0.2,0.6-0.4,0.9-0.5
		c0.3-0.1,0.6-0.1,0.8-0.1c0.3,0,0.5,0,0.7,0.1c0.2,0.1,0.4,0.2,0.5,0.3c0.1,0.2,0.2,0.4,0.3,0.6c0.1,0.3,0.1,0.6,0.1,1v5.2h0.9V5.8
		c0-0.9-0.2-1.5-0.6-1.9c-0.4-0.4-1-0.6-1.8-0.6c-0.5,0-1.1,0.1-1.5,0.4c-0.5,0.3-0.9,0.6-1.2,1.1c-0.2-0.5-0.4-0.9-0.8-1.1
		c-0.4-0.3-0.8-0.4-1.4-0.4c-0.5,0-0.9,0.1-1.3,0.4c-0.4,0.3-0.9,0.6-1.2,1.2V3.5h-0.9V11.4z M144.4,11.4h0.9V0.5h-0.9V11.4z"/>
</g>
<g>
</g>
<g>
</g>
<g>
</g>
<g>
</g>
<g>
</g>
<g>
</g>
</svg>
