<?xml version="1.0" encoding="utf-8"?>
<!-- Generator: Adobe Illustrator 21.0.0, SVG Export Plug-In . SVG Version: 6.00 Build 0)  -->
<svg version="1.1" id="Layer_1" xmlns="http://www.w3.org/2000/svg" xmlns:xlink="http://www.w3.org/1999/xlink" x="0px" y="0px"
	 viewBox="0 0 128.5 28.7" style="enable-background:new 0 0 128.5 28.7;" xml:space="preserve">
<style type="text/css">
	.st0{fill:#231F20;}
</style>
<title>aecomblack</title>
<path class="st0" d="M120.1,28.1l0.1-16.2l-8.1,16.2h-3.5L105.7,12L101,28.1h-6.8l8.6-27.6h6.3l3.2,15.6l8-15.6h6.2l0.5,27.6
	L120.1,28.1z M89.7,15.3c1-4.7-0.7-8.3-4.3-9c-3.9-0.8-7.4,2.2-8.5,7.1c-1,4.7,0.7,8.3,4.3,9C85.1,23.2,88.6,20.2,89.7,15.3
	 M85.1,0.1C92.5,0.6,97,6.6,96.2,14.6c-0.8,8.3-7.5,14.4-15.1,13.9C73.8,28,69.2,22,70,14C70.9,5.7,77.6-0.5,85.1,0.1 M67.6,27.7
	c-2,0.7-4,1-6.1,1c-7.8,0-13-5.7-12.8-13.7C49,6.6,55.5,0,63.5,0c2.8,0,5.6,0.8,7.9,2.3l-1.3,6.6c-1.7-1.5-3.8-2.3-6.1-2.3
	c-4.5-0.2-8.3,3.3-8.5,7.8c0,0.1,0,0.1,0,0.2C55.4,19,58.3,22,62.6,22c2,0.1,4.1-0.3,6-1L67.6,27.7z M45.5,17.5H28.4l1-6.4h17
	L45.5,17.5z M49.4,7H30l1-6.5h19.4L49.4,7z M47.2,21.7H27.8l-1,6.4h19.4L47.2,21.7z M11.7,16.7l4-9.6h0.1l2,9.6H11.7z M20.3,28.2
	h6.6L20.5,0.5H13L0,28.1h6.9l2.3-5.4h9.9L20.3,28.2z"/>
</svg>
