<svg id="Layer_1" data-name="Layer 1" xmlns="http://www.w3.org/2000/svg" viewBox="0 0 61.75 11.5"><defs><style>.cls-1{fill:#231f20;}</style></defs><title>ecosystemlogo</title><path class="cls-1" d="M7.07,6.9a2.38,2.38,0,0,1-.83,1.51,3,3,0,0,1-1.9.53,2.89,2.89,0,0,1-2.26-.86,3.48,3.48,0,0,1-.77-2.42,4.24,4.24,0,0,1,.22-1.43,3,3,0,0,1,.62-1,2.65,2.65,0,0,1,1-.65,3.3,3.3,0,0,1,1.23-.22,3.21,3.21,0,0,1,1.25.22,2.34,2.34,0,0,1,.88.62,2.59,2.59,0,0,1,.52,1,4.31,4.31,0,0,1,.17,1.24V6H2.68a2.3,2.3,0,0,0,.43,1.38,1.46,1.46,0,0,0,1.24.53,1.57,1.57,0,0,0,1-.25,1.22,1.22,0,0,0,.43-.72ZM5.83,5a1.87,1.87,0,0,0-.36-1.21,1.4,1.4,0,0,0-1.15-.44,1.45,1.45,0,0,0-1.15.45A2,2,0,0,0,2.71,5Z"/><path class="cls-1" d="M14,6.57a2.72,2.72,0,0,1-.79,1.74,2.72,2.72,0,0,1-2,.64,3.39,3.39,0,0,1-1.31-.23A2.46,2.46,0,0,1,9,8a2.77,2.77,0,0,1-.55-1,4.73,4.73,0,0,1-.18-1.35,4.3,4.3,0,0,1,.2-1.37,3,3,0,0,1,.59-1.05,2.65,2.65,0,0,1,1-.68,3.25,3.25,0,0,1,1.28-.24,2.6,2.6,0,0,1,1.82.58,2.48,2.48,0,0,1,.76,1.55l-1.36.2a2,2,0,0,0-.37-.88,1.09,1.09,0,0,0-.91-.34,1.44,1.44,0,0,0-.73.17,1.38,1.38,0,0,0-.49.47,2.16,2.16,0,0,0-.27.7,4.12,4.12,0,0,0-.08.85,4.48,4.48,0,0,0,.08.86,2.14,2.14,0,0,0,.26.7,1.38,1.38,0,0,0,.48.48,1.43,1.43,0,0,0,.74.18,1.27,1.27,0,0,0,1-.33,1.64,1.64,0,0,0,.4-.94Z"/><path class="cls-1" d="M18,8.94a2.93,2.93,0,0,1-2.26-.88,3.45,3.45,0,0,1-.81-2.44,4.14,4.14,0,0,1,.22-1.38,2.91,2.91,0,0,1,.62-1,2.72,2.72,0,0,1,1-.66A3.42,3.42,0,0,1,18,2.32a3.45,3.45,0,0,1,1.29.23,2.64,2.64,0,0,1,1,.65,2.87,2.87,0,0,1,.61,1,4.2,4.2,0,0,1,.21,1.37A4.22,4.22,0,0,1,20.87,7a3,3,0,0,1-.62,1.05,2.66,2.66,0,0,1-1,.66A3.45,3.45,0,0,1,18,8.94Zm0-1.1a1.41,1.41,0,0,0,1.27-.6,2.87,2.87,0,0,0,.4-1.62A2.81,2.81,0,0,0,19.27,4,1.43,1.43,0,0,0,18,3.42,1.42,1.42,0,0,0,16.75,4a2.78,2.78,0,0,0-.41,1.6,2.87,2.87,0,0,0,.4,1.62A1.41,1.41,0,0,0,18,7.84Z"/><path class="cls-1" d="M22.88,7a1.43,1.43,0,0,0,.61,1,2.59,2.59,0,0,0,1.37.3A1.89,1.89,0,0,0,26.13,8a1.09,1.09,0,0,0,.37-.84,1.6,1.6,0,0,0,0-.4.82.82,0,0,0-.19-.34,1.08,1.08,0,0,0-.4-.26A3.23,3.23,0,0,0,25.2,6l-.76-.12a7.07,7.07,0,0,1-.88-.2,2.21,2.21,0,0,1-.66-.32,1.27,1.27,0,0,1-.41-.49,1.7,1.7,0,0,1-.14-.73,1.51,1.51,0,0,1,.18-.74A1.63,1.63,0,0,1,23,2.84a2.37,2.37,0,0,1,.74-.34,3.37,3.37,0,0,1,.92-.12,3.81,3.81,0,0,1,1.06.13,2,2,0,0,1,.7.34,1.58,1.58,0,0,1,.42.5,2.92,2.92,0,0,1,.23.61l-.64.13a2.61,2.61,0,0,0-.22-.49,1.16,1.16,0,0,0-.32-.35,1.4,1.4,0,0,0-.48-.21,3.64,3.64,0,0,0-1.52,0,1.48,1.48,0,0,0-.52.25.89.89,0,0,0-.28.36A1.09,1.09,0,0,0,23,4.1a1.46,1.46,0,0,0,0,.39.64.64,0,0,0,.19.31,1.23,1.23,0,0,0,.4.23,3.88,3.88,0,0,0,.68.17l.95.16a3,3,0,0,1,1.45.58,1.58,1.58,0,0,1,.48,1.27,1.61,1.61,0,0,1-.15.68,1.53,1.53,0,0,1-.44.56,2.26,2.26,0,0,1-.74.37,3.44,3.44,0,0,1-1,.14,4.68,4.68,0,0,1-1-.11A2.5,2.5,0,0,1,23,8.5a1.8,1.8,0,0,1-.56-.59A2.06,2.06,0,0,1,22.18,7Z"/><path class="cls-1" d="M28.43,10.32a1.81,1.81,0,0,0,.31.1,1.57,1.57,0,0,0,.34,0,1.14,1.14,0,0,0,.36,0,.64.64,0,0,0,.26-.17,1.4,1.4,0,0,0,.22-.32q.1-.2.23-.51l.29-.73L27.8,2.57h.8l2.24,5.29,2-5.29h.78l-2.81,7q-.14.35-.29.63a2.21,2.21,0,0,1-.34.48,1.23,1.23,0,0,1-.44.3,1.6,1.6,0,0,1-.6.1,3,3,0,0,1-.46,0,2.56,2.56,0,0,1-.43-.11Z"/><path class="cls-1" d="M34.93,7a1.43,1.43,0,0,0,.61,1,2.59,2.59,0,0,0,1.37.3A1.89,1.89,0,0,0,38.18,8a1.09,1.09,0,0,0,.37-.84,1.6,1.6,0,0,0,0-.4.82.82,0,0,0-.19-.34,1.08,1.08,0,0,0-.4-.26A3.23,3.23,0,0,0,37.25,6l-.76-.12a7.07,7.07,0,0,1-.88-.2,2.21,2.21,0,0,1-.66-.32,1.27,1.27,0,0,1-.41-.49,1.7,1.7,0,0,1-.14-.73,1.51,1.51,0,0,1,.18-.74,1.63,1.63,0,0,1,.49-.55,2.37,2.37,0,0,1,.74-.34,3.37,3.37,0,0,1,.92-.12,3.81,3.81,0,0,1,1.06.13,2,2,0,0,1,.7.34,1.58,1.58,0,0,1,.42.5,2.92,2.92,0,0,1,.23.61l-.64.13a2.61,2.61,0,0,0-.22-.49A1.16,1.16,0,0,0,38,3.26a1.4,1.4,0,0,0-.48-.21,3.64,3.64,0,0,0-1.52,0,1.48,1.48,0,0,0-.52.25.89.89,0,0,0-.28.36,1.09,1.09,0,0,0-.08.42,1.46,1.46,0,0,0,0,.39.64.64,0,0,0,.19.31,1.23,1.23,0,0,0,.4.23,3.88,3.88,0,0,0,.68.17l.95.16a3,3,0,0,1,1.45.58,1.58,1.58,0,0,1,.48,1.27,1.61,1.61,0,0,1-.15.68,1.53,1.53,0,0,1-.44.56,2.26,2.26,0,0,1-.74.37,3.44,3.44,0,0,1-1,.14,4.68,4.68,0,0,1-1-.11,2.5,2.5,0,0,1-.82-.34,1.8,1.8,0,0,1-.56-.59A2.06,2.06,0,0,1,34.23,7Z"/><path class="cls-1" d="M41.06,3.16h-1V2.57h1V.87h.7v1.7h1.75v.59H41.75v4a1.46,1.46,0,0,0,.19.77.72.72,0,0,0,.67.32,2.46,2.46,0,0,0,.53,0l.38-.11.14.56a2.79,2.79,0,0,1-1.12.19,1.61,1.61,0,0,1-.83-.18,1.16,1.16,0,0,1-.45-.47,1.85,1.85,0,0,1-.19-.68q0-.38,0-.8Z"/><path class="cls-1" d="M49.59,7.13a2.1,2.1,0,0,1-.77,1.31,2.76,2.76,0,0,1-1.78.5A2.58,2.58,0,0,1,45,8.08a3.5,3.5,0,0,1-.74-2.36,4.51,4.51,0,0,1,.21-1.44A3,3,0,0,1,45,3.24a2.46,2.46,0,0,1,.89-.64A2.85,2.85,0,0,1,47,2.38a2.9,2.9,0,0,1,1.22.23,2.22,2.22,0,0,1,.82.64,2.55,2.55,0,0,1,.46,1,4.68,4.68,0,0,1,.14,1.19v.44H45a3.58,3.58,0,0,0,.13,1,2.35,2.35,0,0,0,.4.8,1.87,1.87,0,0,0,.66.54,2,2,0,0,0,.91.2,3,3,0,0,0,.79-.09A1.54,1.54,0,0,0,48.38,8a1.3,1.3,0,0,0,.34-.39,2,2,0,0,0,.2-.49ZM49,5.23a3.72,3.72,0,0,0-.11-.92,2.07,2.07,0,0,0-.33-.73,1.5,1.5,0,0,0-.6-.47,2.14,2.14,0,0,0-.89-.17,1.89,1.89,0,0,0-1.44.56A2.82,2.82,0,0,0,45,5.23Z"/><path class="cls-1" d="M51.15,2.57h.7v1a3.29,3.29,0,0,1,1-.91,2.11,2.11,0,0,1,1.06-.3A1.85,1.85,0,0,1,55,2.7a1.85,1.85,0,0,1,.63.89,3.11,3.11,0,0,1,1-.89,2.43,2.43,0,0,1,1.21-.32,1.94,1.94,0,0,1,1.39.48,2,2,0,0,1,.5,1.54V8.75H59V4.65A3.36,3.36,0,0,0,59,3.85a1.24,1.24,0,0,0-.24-.5.87.87,0,0,0-.4-.27A1.82,1.82,0,0,0,57.76,3a2.32,2.32,0,0,0-.63.1,1.82,1.82,0,0,0-.68.38A1.91,1.91,0,0,0,56,4a1.49,1.49,0,0,0-.19.76v4h-.7V4.66a2,2,0,0,0-.31-1.28A1.16,1.16,0,0,0,53.84,3a1.57,1.57,0,0,0-.68.15,2.68,2.68,0,0,0-.63.43l-.23.23a1.4,1.4,0,0,0-.22.31,2,2,0,0,0-.16.42,2.09,2.09,0,0,0-.07.55V8.75h-.7Z"/></svg>