<?xml version="1.0" standalone="no"?>
<!DOCTYPE svg PUBLIC "-//W3C//DTD SVG 20010904//EN"
 "http://www.w3.org/TR/2001/REC-SVG-20010904/DTD/svg10.dtd">
<svg version="1.0" xmlns="http://www.w3.org/2000/svg"
 width="270.000000pt" height="270.000000pt" viewBox="0 0 270.000000 270.000000"
 preserveAspectRatio="xMidYMid meet">
<metadata>
Created by potrace 1.11, written by Peter Selinger 2001-2013
</metadata>
<g transform="translate(0.000000,270.000000) scale(0.100000,-0.100000)"
fill="#000000" stroke="none">
<path d="M1289 2349 c-125 -311 -193 -475 -200 -483 -5 -6 -16 -1 -26 11 -15
16 -173 186 -273 293 -14 15 -49 52 -78 83 -29 31 -56 57 -60 57 -4 0 -8 -33
-8 -72 -3 -120 -13 -842 -20 -1333 -3 -253 -7 -494 -8 -537 -2 -63 0 -78 12
-78 8 0 74 14 146 31 72 17 138 32 146 34 8 2 103 24 210 49 107 26 245 58
305 72 100 23 216 50 380 89 33 8 71 17 85 19 14 3 45 10 70 17 61 15 73 17
89 18 15 1 13 24 -24 251 -8 47 -17 108 -20 135 -4 28 -8 57 -10 65 -3 8 -7
33 -10 55 -3 22 -10 67 -15 100 -6 33 -12 71 -14 85 -3 24 -48 67 -336 318
-143 126 -133 114 -157 203 -13 46 -48 176 -78 289 -30 113 -60 225 -68 249
l-12 44 -26 -64z"/>
</g>
</svg>
