<?xml version="1.0" encoding="utf-8"?>
<!-- Generator: Adobe Illustrator 21.0.0, SVG Export Plug-In . SVG Version: 6.00 Build 0)  -->
<svg version="1.1" id="Layer_2" xmlns="http://www.w3.org/2000/svg" xmlns:xlink="http://www.w3.org/1999/xlink" x="0px" y="0px"
	 viewBox="0 0 500 150" style="enable-background:new 0 0 500 150;" xml:space="preserve">
<style type="text/css">
	.st0{fill:#FFFFFF;}
</style>
<g>
	<path class="st0" d="M75.3,83.6l13.5-32.4h0.2l6.9,32.4H75.3L75.3,83.6z M104.2,122.4h22.2l-21.5-93.3H79.5l-43.9,93.3h23.5
		l7.6-18.2h33.6L104.2,122.4L104.2,122.4z"/>
	<path class="st0" d="M189.4,86.6h-57.7l3.3-21.7h57.7L189.4,86.6L189.4,86.6z M202.6,50.8h-65.6l3.3-21.7h65.6L202.6,50.8
		L202.6,50.8z M195.2,100.7h-65.6l-3.3,21.7h65.6L195.2,100.7L195.2,100.7z"/>
	<path class="st0" d="M267.4,98.5c-6.3,2.9-15.6,3.4-20.2,3.4c-14.8,0-24.5-10.1-24-25c0.5-15.8,12.5-27.1,28.7-27.1
		c7.7,0,14.4,2.5,20.5,7.7l4.5-22.3c-9.3-5.5-17-7.7-26.8-7.7c-26.9,0-49,22.4-50,50.5c-0.9,27.3,16.8,46.4,43.2,46.4
		c4.6,0,14.5-0.5,20.7-3.4L267.4,98.5L267.4,98.5z"/>
	<path class="st0" d="M338.6,79c3.4-15.8-2.5-28.1-14.4-30.5c-13.1-2.7-25,7.3-28.6,24c-3.4,15.8,2.5,28.1,14.4,30.5
		C323.1,105.7,335,95.7,338.6,79L338.6,79z M323.2,27.5c24.9,1.8,40.4,22.1,37.6,49.2c-2.9,28-25.5,48.8-50.9,47
		c-25-1.8-40.4-22.1-37.6-49.2C275.1,46.5,297.7,25.7,323.2,27.5"/>
	<polygon class="st0" points="464.4,122.4 462.6,29.1 441.6,29.1 414.7,81.7 403.8,29.1 382.8,29.1 353.8,122.4 377,122.4 
		392.8,67.8 402.7,122.4 414.5,122.4 441.9,67.8 441.5,122.4 464.4,122.4 	"/>
</g>
</svg>
