<?xml version="1.0" encoding="utf-8"?>
<!-- Generator: Adobe Illustrator 21.0.0, SVG Export Plug-In . SVG Version: 6.00 Build 0)  -->
<svg version="1.1" id="Layer_2" xmlns="http://www.w3.org/2000/svg" xmlns:xlink="http://www.w3.org/1999/xlink" x="0px" y="0px"
	 viewBox="0 0 500 150" style="enable-background:new 0 0 500 150;" xml:space="preserve">
<style type="text/css">
	.st0{clip-path:url(#SVGID_2_);}
	.st1{display:none;}
	.st2{display:inline;fill:#FFFFFF;}
</style>
<g>
	<path d="M75,82.9l13.6-32.4h0.2l6.9,32.4H75L75,82.9z M103.9,121.7h22.2l-21.6-93.4H79.2l-44,93.4h23.5l7.6-18.2h33.6L103.9,121.7
		L103.9,121.7z"/>
	<path d="M189.3,85.9h-57.8l3.3-21.7h57.8L189.3,85.9L189.3,85.9z M202.6,50h-65.7l3.3-21.7h65.7L202.6,50L202.6,50z M195.1,100
		h-65.7l-3.3,21.7h65.7L195.1,100L195.1,100z"/>
	<g>
		<defs>
			<rect id="SVGID_1_" x="35.3" y="26.5" width="429.4" height="97.1"/>
		</defs>
		<clipPath id="SVGID_2_">
			<use xlink:href="#SVGID_1_"  style="overflow:visible;"/>
		</clipPath>
		<path class="st0" d="M267.4,97.8c-6.3,2.9-15.6,3.4-20.2,3.4c-14.8,0-24.6-10.1-24.1-25.1c0.5-15.8,12.5-27.2,28.7-27.2
			c7.7,0,14.4,2.5,20.5,7.7l4.5-22.4c-9.3-5.5-17.1-7.7-26.8-7.7c-26.9,0-49.1,22.4-50,50.6c-0.9,27.3,16.8,46.5,43.2,46.5
			c4.6,0,14.5-0.5,20.8-3.4L267.4,97.8L267.4,97.8z"/>
		<path class="st0" d="M338.7,78.3c3.4-15.8-2.5-28.1-14.4-30.5c-13.1-2.7-25.1,7.4-28.7,24.1c-3.4,15.8,2.5,28.1,14.4,30.5
			C323.2,105,335.1,95,338.7,78.3L338.7,78.3z M323.3,26.7c25,1.8,40.4,22.1,37.7,49.3c-2.9,28-25.5,48.9-51,47.1
			c-25-1.8-40.5-22.1-37.7-49.3C275.2,45.7,297.8,24.9,323.3,26.7"/>
	</g>
	<polygon points="464.7,121.7 463,28.3 441.9,28.3 415,81 404.1,28.3 383,28.3 354,121.7 377.2,121.7 393,67 402.9,121.7 
		414.8,121.7 442.2,67 441.8,121.7 464.7,121.7 	"/>
</g>
<g class="st1">
	<path class="st2" d="M75.3,83.6l13.5-32.4h0.2l6.9,32.4H75.3L75.3,83.6z M104.2,122.4h22.2l-21.5-93.3H79.5l-43.9,93.3h23.5
		l7.6-18.2h33.6L104.2,122.4L104.2,122.4z"/>
	<path class="st2" d="M189.4,86.6h-57.7l3.3-21.7h57.7L189.4,86.6L189.4,86.6z M202.6,50.8h-65.6l3.3-21.7h65.6L202.6,50.8
		L202.6,50.8z M195.2,100.7h-65.6l-3.3,21.7h65.6L195.2,100.7L195.2,100.7z"/>
	<path class="st2" d="M267.4,98.5c-6.3,2.9-15.6,3.4-20.2,3.4c-14.8,0-24.5-10.1-24-25c0.5-15.8,12.5-27.1,28.7-27.1
		c7.7,0,14.4,2.5,20.5,7.7l4.5-22.3c-9.3-5.5-17-7.7-26.8-7.7c-26.9,0-49,22.4-50,50.5c-0.9,27.3,16.8,46.4,43.2,46.4
		c4.6,0,14.5-0.5,20.7-3.4L267.4,98.5L267.4,98.5z"/>
	<path class="st2" d="M338.6,79c3.4-15.8-2.5-28.1-14.4-30.5c-13.1-2.7-25,7.3-28.6,24c-3.4,15.8,2.5,28.1,14.4,30.5
		C323.1,105.7,335,95.7,338.6,79L338.6,79z M323.2,27.5c24.9,1.8,40.4,22.1,37.6,49.2c-2.9,28-25.5,48.8-50.9,47
		c-25-1.8-40.4-22.1-37.6-49.2C275.1,46.5,297.7,25.7,323.2,27.5"/>
	<polygon class="st2" points="464.4,122.4 462.6,29.1 441.6,29.1 414.7,81.7 403.8,29.1 382.8,29.1 353.8,122.4 377,122.4 
		392.8,67.8 402.7,122.4 414.5,122.4 441.9,67.8 441.5,122.4 464.4,122.4 	"/>
</g>
</svg>
