<svg id="Layer_1" data-name="Layer 1" xmlns="http://www.w3.org/2000/svg" viewBox="0 0 500 150"><title>logos</title><path d="M19.58,26h14.5a24.44,24.44,0,0,1,8.09,1.25,15.25,15.25,0,0,1,6,3.8A17.17,17.17,0,0,1,52,37.48a27.36,27.36,0,0,1,1.33,9,27,27,0,0,1-1.42,9.16,16.54,16.54,0,0,1-10.58,10.5,26,26,0,0,1-8.58,1.33H19.58ZM33,62.82q7.71,0,11.25-4.32t3.54-11.92A26.33,26.33,0,0,0,47,39.85a13.36,13.36,0,0,0-2.44-5,10.46,10.46,0,0,0-4.26-3.13,16.28,16.28,0,0,0-6.21-1.07H24.92V62.82Z"/><path d="M94.92,53.83a19.26,19.26,0,0,1-1.57,5.83A14.31,14.31,0,0,1,85,67.4,20,20,0,0,1,78,68.5a19.61,19.61,0,0,1-7.71-1.45,15.43,15.43,0,0,1-5.8-4.23A19.69,19.69,0,0,1,60.85,56a29.84,29.84,0,0,1-1.3-9.19,28.56,28.56,0,0,1,1.39-9.28,19.67,19.67,0,0,1,3.89-6.84,16.55,16.55,0,0,1,5.89-4.23A18.48,18.48,0,0,1,78,25a19.86,19.86,0,0,1,6.61,1,13.52,13.52,0,0,1,4.73,2.78,14,14,0,0,1,3.13,4.29,24.66,24.66,0,0,1,1.83,5.51l-5.22.87a21.12,21.12,0,0,0-1.36-4.09,10.32,10.32,0,0,0-2.15-3.1,8.68,8.68,0,0,0-3.13-1.94A13,13,0,0,0,78,29.65a11.42,11.42,0,0,0-9.54,4.73A16.2,16.2,0,0,0,66,39.77a26.34,26.34,0,0,0-.87,7,26.34,26.34,0,0,0,.87,7,16.54,16.54,0,0,0,2.52,5.42,11.29,11.29,0,0,0,4.06,3.48,12.1,12.1,0,0,0,5.54,1.22,14.27,14.27,0,0,0,4.84-.72,8.66,8.66,0,0,0,3.31-2.06,9.73,9.73,0,0,0,2.06-3.19,18.37,18.37,0,0,0,1.1-4.06Z"/><path d="M106.06,55.69q.7,4.35,3.45,6.29t8.21,1.94a14.58,14.58,0,0,0,4.55-.61,8,8,0,0,0,2.93-1.62,5.7,5.7,0,0,0,1.57-2.38,8.86,8.86,0,0,0,.46-2.87,9.47,9.47,0,0,0-.29-2.35A4.85,4.85,0,0,0,125.81,52a7.27,7.27,0,0,0-2.32-1.62,15.22,15.22,0,0,0-3.8-1.1l-5.22-.93A31,31,0,0,1,109,47a13.62,13.62,0,0,1-4-2.23,8.56,8.56,0,0,1-2.49-3.39,12.88,12.88,0,0,1-.84-4.93,10.13,10.13,0,0,1,1.19-5,10.81,10.81,0,0,1,3.22-3.6,14.07,14.07,0,0,1,4.81-2.15,24.8,24.8,0,0,1,6-.7,22.45,22.45,0,0,1,6.87.9,12.9,12.9,0,0,1,4.5,2.41,10.24,10.24,0,0,1,2.64,3.45,20.27,20.27,0,0,1,1.36,4l-5,1a14.67,14.67,0,0,0-1.19-3.1,6.82,6.82,0,0,0-1.91-2.26A8.39,8.39,0,0,0,121.25,30a16.66,16.66,0,0,0-4.23-.46,18.39,18.39,0,0,0-4.76.52,8.73,8.73,0,0,0-3.07,1.42,5,5,0,0,0-1.65,2.15,7.1,7.1,0,0,0-.49,2.64,8.33,8.33,0,0,0,.38,2.64,4.69,4.69,0,0,0,1.28,2A7.07,7.07,0,0,0,111,42.26a21.43,21.43,0,0,0,3.6,1l5.8,1q6.44,1.22,9.45,4t3,8.27a11.47,11.47,0,0,1-1,4.67,10.61,10.61,0,0,1-2.84,3.8,13.6,13.6,0,0,1-4.73,2.55,21.57,21.57,0,0,1-6.67.93,28.17,28.17,0,0,1-6.64-.73,14.93,14.93,0,0,1-5.19-2.29,11.76,11.76,0,0,1-3.54-4,14.55,14.55,0,0,1-1.62-5.8Z"/><path d="M165.45,26h5.63l16.07,41.41h-5.8L177,55.92H159.24l-4.35,11.54h-5.57Zm9.92,25.23-7.31-19.2-7.19,19.2Z"/><path d="M191.67,37.48h5v4.58a14.22,14.22,0,0,1,4.46-4.15,10.11,10.11,0,0,1,5-1.36A9.24,9.24,0,0,1,211.53,38a8.46,8.46,0,0,1,3,4.18A14.16,14.16,0,0,1,219.22,38a11.47,11.47,0,0,1,5.57-1.42A9.22,9.22,0,0,1,231.6,39Q234,41.36,234,46.7V67.46h-5V47.86a14,14,0,0,0-.35-3.39,5.29,5.29,0,0,0-1-2.15,3.58,3.58,0,0,0-1.65-1.1,7.38,7.38,0,0,0-2.26-.32,9.12,9.12,0,0,0-2.78.46A8.54,8.54,0,0,0,218.06,43a8.23,8.23,0,0,0-1.91,2.38,6.59,6.59,0,0,0-.75,3.19V67.46h-5V47.92q0-3.94-1.36-5.48a5,5,0,0,0-3.91-1.54,8.06,8.06,0,0,0-5.57,2.44,11.72,11.72,0,0,0-1.88,2.38,7.31,7.31,0,0,0-.9,3.89V67.46h-5Z"/><path d="M267.53,59.05a10.8,10.8,0,0,1-3.86,6.84q-3.1,2.49-8.9,2.49-6.84,0-10.5-4.15t-3.65-11.57a21,21,0,0,1,1-6.9,14.08,14.08,0,0,1,2.93-5,12.59,12.59,0,0,1,4.5-3.1,16.16,16.16,0,0,1,11.66,0,10.89,10.89,0,0,1,4.09,3,12.91,12.91,0,0,1,2.38,4.61,20.77,20.77,0,0,1,.78,5.86v2.55H245.72a14,14,0,0,0,.61,4.21,10.28,10.28,0,0,0,1.74,3.36,8,8,0,0,0,2.81,2.23,8.83,8.83,0,0,0,3.89.81q3.77,0,5.51-1.42a7.16,7.16,0,0,0,2.38-3.86Zm-4.58-9.11a15.07,15.07,0,0,0-.46-3.89,8.14,8.14,0,0,0-1.45-3,6.62,6.62,0,0,0-2.55-1.94,9.25,9.25,0,0,0-3.77-.7,8,8,0,0,0-6.23,2.44,11.69,11.69,0,0,0-2.64,7.08Z"/><path d="M274.66,37.48h5v4.64a12.36,12.36,0,0,1,3.94-3.83A9.33,9.33,0,0,1,288.41,37a13.18,13.18,0,0,1,2.67.23l-.64,4.7-1.16-.2a8.62,8.62,0,0,0-1.28-.09,8.81,8.81,0,0,0-2.84.49,7.76,7.76,0,0,0-2.72,1.65,8.19,8.19,0,0,0-2,2.55,7.42,7.42,0,0,0-.72,3.36V67.46h-5Z"/><path d="M295.83,26h5.39v5.86h-5.39ZM296,37.48h5v30h-5Z"/><path d="M334.92,57.31A13.28,13.28,0,0,1,331,65.43q-3.19,3-9,3a15.63,15.63,0,0,1-6.06-1.1,11.6,11.6,0,0,1-4.41-3.16,13.7,13.7,0,0,1-2.67-5,22.38,22.38,0,0,1-.9-6.58,20.61,20.61,0,0,1,1-6.55,14.29,14.29,0,0,1,2.84-5,12.79,12.79,0,0,1,4.52-3.25,15,15,0,0,1,6-1.16q5.39,0,8.35,2.64a12.22,12.22,0,0,1,3.77,7.28l-5,.93a14.94,14.94,0,0,0-.78-2.67,6.53,6.53,0,0,0-1.36-2.12,6,6,0,0,0-2.12-1.39,8.14,8.14,0,0,0-3-.49,8.51,8.51,0,0,0-4.06.9,7.58,7.58,0,0,0-2.75,2.49,11,11,0,0,0-1.57,3.74,20.4,20.4,0,0,0-.49,4.58,21.63,21.63,0,0,0,.46,4.58,11,11,0,0,0,1.51,3.74A7.58,7.58,0,0,0,318,63.29a8.42,8.42,0,0,0,4.12.93q3.65,0,5.42-1.86a9.28,9.28,0,0,0,2.29-5Z"/><path d="M359.46,63.34a14.64,14.64,0,0,1-4.12,3.39,12.39,12.39,0,0,1-6.21,1.42,14.74,14.74,0,0,1-4.15-.55,8.94,8.94,0,0,1-3.25-1.68,7.67,7.67,0,0,1-2.12-2.81,9.58,9.58,0,0,1-.75-3.94,8.7,8.7,0,0,1,1.3-5,9.12,9.12,0,0,1,3.48-3,17.16,17.16,0,0,1,4.9-1.57,44.07,44.07,0,0,1,5.63-.58l5.16-.17V47.68q0-3.83-1.62-5.51t-5.28-1.68a9.26,9.26,0,0,0-5.28,1.19A5.51,5.51,0,0,0,345,45l-4.58-.52a8.59,8.59,0,0,1,3.89-6,15.91,15.91,0,0,1,8.35-1.89,16.7,16.7,0,0,1,5.48.78,9.11,9.11,0,0,1,3.63,2.23,8.41,8.41,0,0,1,2,3.6,17.62,17.62,0,0,1,.61,4.81V67.46h-4.87Zm-.12-10.9-4.81.17a28.32,28.32,0,0,0-5.1.58,9.88,9.88,0,0,0-3.22,1.25,4.36,4.36,0,0,0-1.68,1.94,6.77,6.77,0,0,0-.49,2.67,4.9,4.9,0,0,0,1.36,3.63q1.36,1.36,4.5,1.36a10.15,10.15,0,0,0,7-2.2,7.64,7.64,0,0,0,2.49-6Z"/><path d="M375.23,58.7a5.85,5.85,0,0,0,2.64,4.38,11.35,11.35,0,0,0,5.77,1.25q3.83,0,5.42-1.31a4.24,4.24,0,0,0,1.6-3.45,6.59,6.59,0,0,0-.2-1.65,3.16,3.16,0,0,0-.78-1.39,5,5,0,0,0-1.62-1.07,11.81,11.81,0,0,0-2.73-.75l-3.83-.58a28.16,28.16,0,0,1-4.47-1,11.13,11.13,0,0,1-3.25-1.65,6.38,6.38,0,0,1-2-2.49,8.63,8.63,0,0,1-.67-3.57,7.52,7.52,0,0,1,.9-3.71,8.25,8.25,0,0,1,2.49-2.75,12.1,12.1,0,0,1,3.77-1.74,17.48,17.48,0,0,1,4.73-.61,19.58,19.58,0,0,1,5.42.64A10.44,10.44,0,0,1,392,38.92a7.7,7.7,0,0,1,2.15,2.61,15,15,0,0,1,1.16,3.19l-4.58.75a12.29,12.29,0,0,0-.93-2.15,4.62,4.62,0,0,0-1.39-1.54,6.45,6.45,0,0,0-2.12-.93,12.78,12.78,0,0,0-3.1-.32,13.58,13.58,0,0,0-3.48.38,6.5,6.5,0,0,0-2.23,1,3.7,3.7,0,0,0-1.19,1.42,4,4,0,0,0-.35,1.65,5.4,5.4,0,0,0,.23,1.65,2.78,2.78,0,0,0,.87,1.28,5.61,5.61,0,0,0,1.74,1,16,16,0,0,0,2.84.7l4.35.7q5.28.87,7.57,3a8.17,8.17,0,0,1,2.29,6.26,8.12,8.12,0,0,1-.75,3.51,7.76,7.76,0,0,1-2.26,2.78A11.09,11.09,0,0,1,389,67.72a18.76,18.76,0,0,1-5.28.67,23.36,23.36,0,0,1-5.08-.52,13,13,0,0,1-4.15-1.65,8.74,8.74,0,0,1-2.9-3,10,10,0,0,1-1.28-4.52Z"/><path d="M19.58,82h6.61l13.34,35L53.11,82h6.38v41.41H54.56V90.81l-13,32.65H37.21L24.45,90.92v32.54H19.58Z"/><path d="M86.63,119.34a14.64,14.64,0,0,1-4.12,3.39,12.4,12.4,0,0,1-6.21,1.42,14.74,14.74,0,0,1-4.15-.55,8.93,8.93,0,0,1-3.25-1.68,7.68,7.68,0,0,1-2.12-2.81,9.58,9.58,0,0,1-.75-3.94,8.7,8.7,0,0,1,1.3-5,9.12,9.12,0,0,1,3.48-3,17.19,17.19,0,0,1,4.9-1.57,44.25,44.25,0,0,1,5.63-.58l5.16-.17v-1.16q0-3.83-1.62-5.51t-5.28-1.68a9.26,9.26,0,0,0-5.28,1.19A5.5,5.5,0,0,0,72.13,101l-4.58-.52a8.59,8.59,0,0,1,3.89-6,15.91,15.91,0,0,1,8.35-1.88,16.69,16.69,0,0,1,5.48.78,9.11,9.11,0,0,1,3.63,2.23,8.42,8.42,0,0,1,2,3.6A17.62,17.62,0,0,1,91.5,104v19.49H86.63Zm-.12-10.9-4.81.17a28.19,28.19,0,0,0-5.1.58,9.88,9.88,0,0,0-3.22,1.25,4.37,4.37,0,0,0-1.68,1.94,6.77,6.77,0,0,0-.49,2.67,4.9,4.9,0,0,0,1.36,3.63q1.36,1.36,4.5,1.36a10.15,10.15,0,0,0,7-2.2,7.64,7.64,0,0,0,2.49-6Z"/><path d="M99.16,93.47h5v4.64a12.37,12.37,0,0,1,3.94-3.83A9.32,9.32,0,0,1,112.9,93a13.25,13.25,0,0,1,2.67.23l-.64,4.7-1.16-.2a8.69,8.69,0,0,0-1.28-.09,8.81,8.81,0,0,0-2.84.49,7.76,7.76,0,0,0-2.72,1.65,8.19,8.19,0,0,0-2,2.55,7.42,7.42,0,0,0-.72,3.36v17.81h-5Z"/><path d="M120.38,82h5v24.13l14-12.7h6.09l-10.73,10,11.89,20h-5.74l-9.92-17-5.63,5v11.95h-5Z"/><path d="M175.2,115.05a10.8,10.8,0,0,1-3.86,6.84q-3.1,2.49-8.9,2.49-6.84,0-10.5-4.15t-3.65-11.57a21.08,21.08,0,0,1,1-6.9,14.09,14.09,0,0,1,2.93-5,12.59,12.59,0,0,1,4.5-3.1,16.15,16.15,0,0,1,11.66,0,10.88,10.88,0,0,1,4.09,3,12.93,12.93,0,0,1,2.38,4.61,20.74,20.74,0,0,1,.78,5.86v2.55H153.39a14,14,0,0,0,.61,4.21,10.28,10.28,0,0,0,1.74,3.36,8,8,0,0,0,2.81,2.23,8.82,8.82,0,0,0,3.89.81q3.77,0,5.51-1.42a7.16,7.16,0,0,0,2.38-3.86Zm-4.58-9.11a15.08,15.08,0,0,0-.46-3.89,8.15,8.15,0,0,0-1.45-3,6.61,6.61,0,0,0-2.55-1.94,9.24,9.24,0,0,0-3.77-.7,8,8,0,0,0-6.24,2.44,11.7,11.7,0,0,0-2.64,7.08Z"/><path d="M184.07,97.48h-4.64v-4h4.64V85.3h5v8.18h7.95v4h-7.95v17.57a5.81,5.81,0,0,0,1,3.54,3.5,3.5,0,0,0,3,1.33,12.61,12.61,0,0,0,2.23-.17,11.28,11.28,0,0,0,1.77-.46l.87,3.89a17.63,17.63,0,0,1-2.52.67,17.34,17.34,0,0,1-3.22.26,9.56,9.56,0,0,1-4.12-.75,6.11,6.11,0,0,1-2.49-2.15,8.36,8.36,0,0,1-1.25-3.31,25.43,25.43,0,0,1-.32-4.18Z"/><path d="M202.4,82h5.39v5.86H202.4Zm.17,11.43h5v30h-5Z"/><path d="M215.5,93.47h5v4.58a13.39,13.39,0,0,1,4.87-4.23A12.87,12.87,0,0,1,231,92.55q5.1,0,7.57,2.78t2.46,8.18v20h-5v-19q0-4.18-1.51-5.89a5.87,5.87,0,0,0-4.64-1.71,10,10,0,0,0-3.33.58,8.24,8.24,0,0,0-3,1.86,9.64,9.64,0,0,0-2.2,2.7,7.84,7.84,0,0,0-.75,3.68v17.75h-5Z"/><path d="M253.67,126.25a6,6,0,0,0,2.46,3.89,10.93,10.93,0,0,0,5.71,1.16q4.75,0,6.58-2.64t1.83-7.69v-3.19a12.38,12.38,0,0,1-4.21,3.77,11.94,11.94,0,0,1-5.77,1.33,12.62,12.62,0,0,1-5.66-1.19,11.06,11.06,0,0,1-4-3.25,14.37,14.37,0,0,1-2.35-4.79,21.16,21.16,0,0,1-.78-5.86,19.8,19.8,0,0,1,.93-6.23,13.83,13.83,0,0,1,2.67-4.81,12,12,0,0,1,4.21-3.1,13.43,13.43,0,0,1,5.54-1.1,13,13,0,0,1,5,1,10.9,10.9,0,0,1,4.5,3.74V93.47h5v25.11a40.32,40.32,0,0,1-.55,7,13.47,13.47,0,0,1-2,5.28,9.46,9.46,0,0,1-4.09,3.34,16.7,16.7,0,0,1-6.73,1.16q-5.92,0-9.28-2.12t-3.94-7Zm16.7-18.91a15.22,15.22,0,0,0-.7-5,8.89,8.89,0,0,0-1.91-3.28,7,7,0,0,0-2.81-1.83,10.15,10.15,0,0,0-3.33-.55,9.59,9.59,0,0,0-3.45.61,7.07,7.07,0,0,0-2.78,1.94,9.31,9.31,0,0,0-1.86,3.42,16.68,16.68,0,0,0-.67,5,15.67,15.67,0,0,0,.72,5.1,9.61,9.61,0,0,0,1.89,3.36,6.9,6.9,0,0,0,2.7,1.86,8.73,8.73,0,0,0,3.1.58,10,10,0,0,0,3.63-.64,7.78,7.78,0,0,0,2.87-1.91,8.93,8.93,0,0,0,1.91-3.22,13.48,13.48,0,0,0,.7-4.55Z"/></svg>