<svg id="Layer_1" data-name="Layer 1" xmlns="http://www.w3.org/2000/svg" viewBox="0 0 438 150"><defs><style>.cls-1{fill:#fff;}</style></defs><title>logos</title><path class="cls-1" d="M18.82,26H34.07a25.7,25.7,0,0,1,8.51,1.31,16,16,0,0,1,6.34,4,18,18,0,0,1,4,6.71,28.75,28.75,0,0,1,1.4,9.46,28.39,28.39,0,0,1-1.49,9.64,17.4,17.4,0,0,1-11.13,11,27.28,27.28,0,0,1-9,1.4H18.82ZM32.91,64.72q8.11,0,11.83-4.54t3.72-12.54a27.73,27.73,0,0,0-.82-7.08,14.07,14.07,0,0,0-2.56-5.28A11,11,0,0,0,40.6,32a17.13,17.13,0,0,0-6.53-1.13H24.43V64.72Z"/><path class="cls-1" d="M98.06,55.27a20.24,20.24,0,0,1-1.65,6.13,15,15,0,0,1-8.81,8.14,21,21,0,0,1-7.29,1.16,20.63,20.63,0,0,1-8.11-1.52,16.23,16.23,0,0,1-6.1-4.45,20.69,20.69,0,0,1-3.87-7.17,31.35,31.35,0,0,1-1.37-9.67,30.08,30.08,0,0,1,1.46-9.76,20.69,20.69,0,0,1,4.09-7.2,17.4,17.4,0,0,1,6.19-4.45A19.43,19.43,0,0,1,80.31,25a20.86,20.86,0,0,1,7,1,14.22,14.22,0,0,1,5,2.93,14.74,14.74,0,0,1,3.29,4.51,25.9,25.9,0,0,1,1.92,5.79L92,40.14a22.17,22.17,0,0,0-1.43-4.3,10.86,10.86,0,0,0-2.26-3.26,9.13,9.13,0,0,0-3.29-2,13.66,13.66,0,0,0-4.67-.7,12,12,0,0,0-10,5,17.06,17.06,0,0,0-2.65,5.67,27.65,27.65,0,0,0-.92,7.35,27.64,27.64,0,0,0,.92,7.35,17.4,17.4,0,0,0,2.65,5.7,11.88,11.88,0,0,0,4.27,3.66,12.73,12.73,0,0,0,5.83,1.28,15,15,0,0,0,5.09-.76,9.11,9.11,0,0,0,3.48-2.17,10.27,10.27,0,0,0,2.17-3.36,19.38,19.38,0,0,0,1.16-4.27Z"/><path class="cls-1" d="M109.77,57.22q.73,4.57,3.63,6.62t8.63,2a15.34,15.34,0,0,0,4.79-.64,8.41,8.41,0,0,0,3.08-1.71,6,6,0,0,0,1.65-2.5,9.3,9.3,0,0,0,.49-3,9.92,9.92,0,0,0-.3-2.47,5.07,5.07,0,0,0-1.19-2.17,7.65,7.65,0,0,0-2.44-1.71,16,16,0,0,0-4-1.16l-5.49-1a32.64,32.64,0,0,1-5.73-1.46,14.33,14.33,0,0,1-4.24-2.35A9,9,0,0,1,106,42.15a13.54,13.54,0,0,1-.88-5.18,10.65,10.65,0,0,1,1.25-5.25,11.36,11.36,0,0,1,3.39-3.78,14.76,14.76,0,0,1,5.06-2.26,26.09,26.09,0,0,1,6.34-.73,23.63,23.63,0,0,1,7.23.95,13.55,13.55,0,0,1,4.73,2.53,10.78,10.78,0,0,1,2.78,3.63,21.27,21.27,0,0,1,1.43,4.18l-5.25,1A15.35,15.35,0,0,0,130.84,34a7.17,7.17,0,0,0-2-2.38,8.85,8.85,0,0,0-3.08-1.43,17.52,17.52,0,0,0-4.45-.49,19.37,19.37,0,0,0-5,.55,9.2,9.2,0,0,0-3.23,1.5A5.31,5.31,0,0,0,111.32,34a7.48,7.48,0,0,0-.52,2.78,8.78,8.78,0,0,0,.4,2.78,4.94,4.94,0,0,0,1.34,2.07A7.4,7.4,0,0,0,115,43.1a22.6,22.6,0,0,0,3.78,1l6.1,1.1q6.77,1.28,9.94,4.24T138,58.14A12.08,12.08,0,0,1,137,63a11.17,11.17,0,0,1-3,4,14.31,14.31,0,0,1-5,2.68,22.7,22.7,0,0,1-7,1,29.61,29.61,0,0,1-7-.76,15.71,15.71,0,0,1-5.46-2.41,12.36,12.36,0,0,1-3.72-4.21,15.3,15.3,0,0,1-1.71-6.1Z"/><path class="cls-1" d="M172.23,26h5.92L195,69.6h-6.1l-4.57-12.14H165.71L161.13,69.6h-5.86Zm10.43,26.54L175,32.39l-7.56,20.19Z"/><path class="cls-1" d="M199.8,38.07H205v4.82a15,15,0,0,1,4.7-4.36A10.63,10.63,0,0,1,215,37.09a9.72,9.72,0,0,1,5.7,1.53A8.88,8.88,0,0,1,223.9,43a14.91,14.91,0,0,1,4.88-4.42,12.07,12.07,0,0,1,5.86-1.5q4.63,0,7.17,2.53t2.53,8.14V69.6H239V49a14.69,14.69,0,0,0-.37-3.57,5.56,5.56,0,0,0-1.07-2.26A3.76,3.76,0,0,0,235.85,42a7.74,7.74,0,0,0-2.38-.34,9.6,9.6,0,0,0-2.93.49,9,9,0,0,0-3,1.71,8.66,8.66,0,0,0-2,2.5,6.92,6.92,0,0,0-.79,3.35V69.6h-5.31V49q0-4.15-1.43-5.76a5.22,5.22,0,0,0-4.12-1.62A8.48,8.48,0,0,0,208,44.23a12.29,12.29,0,0,0-2,2.5,7.69,7.69,0,0,0-.95,4.09V69.6H199.8Z"/><path class="cls-1" d="M279.59,60.76a11.35,11.35,0,0,1-4.06,7.2q-3.26,2.62-9.36,2.62-7.2,0-11-4.36T251.29,54a22.14,22.14,0,0,1,1.1-7.26,14.8,14.8,0,0,1,3.08-5.31,13.25,13.25,0,0,1,4.73-3.26,17,17,0,0,1,12.26,0,11.46,11.46,0,0,1,4.3,3.2,13.55,13.55,0,0,1,2.5,4.85,21.82,21.82,0,0,1,.82,6.16v2.68H256.65a14.71,14.71,0,0,0,.64,4.42,10.81,10.81,0,0,0,1.83,3.54,8.36,8.36,0,0,0,3,2.35,9.28,9.28,0,0,0,4.09.85q4,0,5.79-1.5a7.53,7.53,0,0,0,2.5-4.06Zm-4.82-9.58a15.82,15.82,0,0,0-.49-4.09A8.56,8.56,0,0,0,272.76,44a7,7,0,0,0-2.68-2,9.72,9.72,0,0,0-4-.73,8.45,8.45,0,0,0-6.56,2.56q-2.35,2.56-2.78,7.44Z"/><path class="cls-1" d="M287.09,38.07h5.25v4.88a13,13,0,0,1,4.15-4,9.81,9.81,0,0,1,5.06-1.4,13.88,13.88,0,0,1,2.81.24l-.67,4.94q-.61-.12-1.22-.21a9,9,0,0,0-1.34-.09,9.24,9.24,0,0,0-3,.52,8.16,8.16,0,0,0-2.87,1.74,8.63,8.63,0,0,0-2.1,2.68,7.81,7.81,0,0,0-.76,3.54V69.6h-5.31Z"/><path class="cls-1" d="M309.36,26H315v6.16h-5.67Zm.18,12h5.31V69.6h-5.31Z"/><path class="cls-1" d="M350.47,58.93a14,14,0,0,1-4.15,8.54q-3.36,3.11-9.46,3.11a16.43,16.43,0,0,1-6.37-1.16,12.18,12.18,0,0,1-4.64-3.32,14.41,14.41,0,0,1-2.8-5.25,23.53,23.53,0,0,1-.95-6.92,21.68,21.68,0,0,1,1-6.89,15,15,0,0,1,3-5.31,13.44,13.44,0,0,1,4.76-3.42,15.75,15.75,0,0,1,6.34-1.22q5.67,0,8.78,2.78a12.85,12.85,0,0,1,4,7.66l-5.31,1a15.8,15.8,0,0,0-.82-2.81,6.88,6.88,0,0,0-1.43-2.23A6.26,6.26,0,0,0,340.19,42a8.54,8.54,0,0,0-3.14-.52,9,9,0,0,0-4.27.95,8,8,0,0,0-2.9,2.62A11.61,11.61,0,0,0,328.24,49a21.43,21.43,0,0,0-.52,4.82,22.71,22.71,0,0,0,.49,4.82,11.55,11.55,0,0,0,1.59,3.93,8,8,0,0,0,2.87,2.65,8.85,8.85,0,0,0,4.33,1q3.84,0,5.7-2a9.76,9.76,0,0,0,2.41-5.31Z"/><path class="cls-1" d="M376.27,65.27a15.43,15.43,0,0,1-4.33,3.57,13,13,0,0,1-6.53,1.49,15.52,15.52,0,0,1-4.36-.58A9.39,9.39,0,0,1,357.64,68a8.07,8.07,0,0,1-2.23-3,10.06,10.06,0,0,1-.79-4.15A9.14,9.14,0,0,1,356,55.63a9.58,9.58,0,0,1,3.66-3.17,18.08,18.08,0,0,1,5.15-1.65,46.36,46.36,0,0,1,5.92-.61l5.43-.18V48.8q0-4-1.71-5.8t-5.55-1.77q-3.78,0-5.55,1.25A5.79,5.79,0,0,0,361,45.94l-4.82-.55a9,9,0,0,1,4.09-6.31q3.23-2,8.78-2a17.56,17.56,0,0,1,5.76.82,9.56,9.56,0,0,1,3.81,2.35,8.84,8.84,0,0,1,2.1,3.78,18.52,18.52,0,0,1,.64,5.06V69.6h-5.12Zm-.12-11.47-5.06.18a29.79,29.79,0,0,0-5.37.61,10.37,10.37,0,0,0-3.38,1.31,4.59,4.59,0,0,0-1.77,2,7.12,7.12,0,0,0-.52,2.81,5.14,5.14,0,0,0,1.43,3.81Q362.92,66,366.21,66q4.7,0,7.32-2.32a8,8,0,0,0,2.62-6.34Z"/><path class="cls-1" d="M392.87,60.39A6.15,6.15,0,0,0,395.64,65a12,12,0,0,0,6.07,1.31q4,0,5.7-1.37a4.45,4.45,0,0,0,1.68-3.63,6.9,6.9,0,0,0-.21-1.74,3.31,3.31,0,0,0-.82-1.46A5.3,5.3,0,0,0,406.35,57a12.44,12.44,0,0,0-2.87-.79l-4-.61a29.66,29.66,0,0,1-4.7-1.1,11.66,11.66,0,0,1-3.42-1.74,6.72,6.72,0,0,1-2.11-2.62,9.09,9.09,0,0,1-.7-3.75,7.92,7.92,0,0,1,.95-3.9,8.69,8.69,0,0,1,2.62-2.9,12.74,12.74,0,0,1,4-1.83,18.39,18.39,0,0,1,5-.64,20.59,20.59,0,0,1,5.7.67,11,11,0,0,1,3.75,1.83,8.12,8.12,0,0,1,2.26,2.75A15.81,15.81,0,0,1,414,45.69l-4.82.79a13,13,0,0,0-1-2.26,4.86,4.86,0,0,0-1.46-1.62,6.77,6.77,0,0,0-2.23-1,13.47,13.47,0,0,0-3.26-.34,14.29,14.29,0,0,0-3.66.4,6.84,6.84,0,0,0-2.35,1.07A3.88,3.88,0,0,0,394,44.26,4.23,4.23,0,0,0,393.6,46a5.71,5.71,0,0,0,.24,1.74,2.93,2.93,0,0,0,.92,1.34,5.88,5.88,0,0,0,1.83,1,16.79,16.79,0,0,0,3,.73l4.58.73q5.55.92,8,3.17t2.41,6.59a8.54,8.54,0,0,1-.79,3.69,8.15,8.15,0,0,1-2.38,2.93,11.65,11.65,0,0,1-4,2,19.74,19.74,0,0,1-5.55.7A24.57,24.57,0,0,1,396.5,70a13.69,13.69,0,0,1-4.36-1.74,9.19,9.19,0,0,1-3.05-3.14,10.55,10.55,0,0,1-1.34-4.76Z"/><path class="cls-1" d="M18.82,89h7l14,36.84L54.08,89h6.71V132.6H55.6V98.26L41.94,132.6H37.36L23.94,98.38V132.6H18.82Z"/><path class="cls-1" d="M89.33,128.27A15.41,15.41,0,0,1,85,131.84a13,13,0,0,1-6.53,1.5,15.52,15.52,0,0,1-4.36-.58A9.39,9.39,0,0,1,70.7,131a8.06,8.06,0,0,1-2.23-3,10.05,10.05,0,0,1-.79-4.15,9.14,9.14,0,0,1,1.37-5.25,9.58,9.58,0,0,1,3.66-3.17,18.06,18.06,0,0,1,5.16-1.65,46.37,46.37,0,0,1,5.92-.61l5.43-.18V111.8q0-4-1.71-5.79T82,104.24q-3.78,0-5.55,1.25a5.8,5.8,0,0,0-2.32,3.45l-4.82-.55a9,9,0,0,1,4.09-6.31q3.23-2,8.78-2a17.55,17.55,0,0,1,5.76.82,9.56,9.56,0,0,1,3.81,2.35A8.84,8.84,0,0,1,93.82,107a18.55,18.55,0,0,1,.64,5.06v20.5H89.33Zm-.12-11.47-5.06.18a29.79,29.79,0,0,0-5.37.61,10.4,10.4,0,0,0-3.38,1.31,4.59,4.59,0,0,0-1.77,2,7.13,7.13,0,0,0-.52,2.81,5.15,5.15,0,0,0,1.43,3.81Q76,129,79.27,129q4.7,0,7.32-2.32a8,8,0,0,0,2.62-6.34Z"/><path class="cls-1" d="M102.51,101.07h5.25v4.88a13,13,0,0,1,4.15-4,9.8,9.8,0,0,1,5.06-1.4,13.89,13.89,0,0,1,2.81.24l-.67,4.94q-.61-.12-1.22-.21a9,9,0,0,0-1.34-.09,9.28,9.28,0,0,0-3,.52,8.17,8.17,0,0,0-2.87,1.74,8.61,8.61,0,0,0-2.1,2.68,7.79,7.79,0,0,0-.76,3.54V132.6h-5.31Z"/><path class="cls-1" d="M124.84,89h5.25v25.38l14.76-13.36h6.41L140,111.62l12.5,21h-6L136,114.73,130.08,120V132.6h-5.25Z"/><path class="cls-1" d="M182.48,123.76a11.35,11.35,0,0,1-4.06,7.2q-3.26,2.62-9.36,2.62-7.2,0-11-4.36T154.18,117a22.14,22.14,0,0,1,1.1-7.26,14.81,14.81,0,0,1,3.08-5.31,13.25,13.25,0,0,1,4.73-3.26,17,17,0,0,1,12.26,0,11.45,11.45,0,0,1,4.3,3.2,13.56,13.56,0,0,1,2.5,4.85,21.83,21.83,0,0,1,.82,6.16v2.68H159.54a14.73,14.73,0,0,0,.64,4.42,10.82,10.82,0,0,0,1.83,3.54,8.37,8.37,0,0,0,3,2.35,9.28,9.28,0,0,0,4.09.85q4,0,5.79-1.49a7.53,7.53,0,0,0,2.5-4.06Zm-4.82-9.58a15.83,15.83,0,0,0-.49-4.09,8.57,8.57,0,0,0-1.52-3.14,7,7,0,0,0-2.68-2,9.73,9.73,0,0,0-4-.73,8.45,8.45,0,0,0-6.56,2.56q-2.35,2.56-2.78,7.44Z"/><path class="cls-1" d="M191.81,105.28h-4.88v-4.21h4.88v-8.6h5.31v8.6h8.36v4.21h-8.36v18.48a6.1,6.1,0,0,0,1,3.72,3.69,3.69,0,0,0,3.17,1.4,13.26,13.26,0,0,0,2.35-.18,11.87,11.87,0,0,0,1.86-.49l.92,4.09a18.56,18.56,0,0,1-2.65.7,18.27,18.27,0,0,1-3.39.27,10.05,10.05,0,0,1-4.33-.79,6.45,6.45,0,0,1-2.62-2.26,8.8,8.8,0,0,1-1.31-3.48,26.77,26.77,0,0,1-.33-4.39Z"/><path class="cls-1" d="M211.09,89h5.67v6.16h-5.67Zm.18,12h5.31V132.6h-5.31Z"/><path class="cls-1" d="M224.88,101.07h5.25v4.82a14.07,14.07,0,0,1,5.12-4.45,13.55,13.55,0,0,1,5.92-1.34q5.37,0,8,2.93t2.59,8.6v21h-5.31V112.66q0-4.39-1.59-6.19a6.18,6.18,0,0,0-4.88-1.8,10.55,10.55,0,0,0-3.51.61,8.67,8.67,0,0,0-3.14,2,10.14,10.14,0,0,0-2.32,2.84,8.24,8.24,0,0,0-.79,3.87V132.6h-5.31Z"/><path class="cls-1" d="M265,135.53a6.26,6.26,0,0,0,2.59,4.09q1.92,1.22,6,1.22,5,0,6.92-2.78t1.92-8.08v-3.35a13,13,0,0,1-4.42,4A12.56,12.56,0,0,1,272,132a13.27,13.27,0,0,1-5.95-1.25,11.62,11.62,0,0,1-4.18-3.42,15.11,15.11,0,0,1-2.47-5,22.24,22.24,0,0,1-.82-6.16,20.85,20.85,0,0,1,1-6.56,14.55,14.55,0,0,1,2.81-5.06,12.6,12.6,0,0,1,4.42-3.26,14.13,14.13,0,0,1,5.83-1.16,13.61,13.61,0,0,1,5.21,1.07,11.46,11.46,0,0,1,4.73,3.93v-4h5.25v26.41a42.24,42.24,0,0,1-.58,7.35,14.15,14.15,0,0,1-2.13,5.55,10,10,0,0,1-4.3,3.51,17.57,17.57,0,0,1-7.08,1.22q-6.22,0-9.76-2.23t-4.15-7.35Zm17.57-19.89a16,16,0,0,0-.73-5.22,9.36,9.36,0,0,0-2-3.45,7.4,7.4,0,0,0-3-1.92,10.66,10.66,0,0,0-3.51-.58,10.09,10.09,0,0,0-3.63.64,7.43,7.43,0,0,0-2.93,2,9.8,9.8,0,0,0-2,3.6,17.57,17.57,0,0,0-.7,5.31,16.5,16.5,0,0,0,.76,5.37,10.13,10.13,0,0,0,2,3.54,7.26,7.26,0,0,0,2.84,2,9.16,9.16,0,0,0,3.26.61,10.49,10.49,0,0,0,3.81-.67,8.19,8.19,0,0,0,3-2,9.4,9.4,0,0,0,2-3.39,14.18,14.18,0,0,0,.73-4.79Z"/></svg>